<svg width="15" height="38" viewBox="0 0 15 38" fill="none" xmlns="http://www.w3.org/2000/svg">
<path d="M0.569907 21.7492C0.569907 21.5351 0.569907 21.5946 0.516479 21.7492H0.569907Z" fill="#2B82FB"/>
<path d="M0.569885 21.7373V21.773C0.569885 21.773 0.617376 21.6065 0.569885 21.7373Z" fill="#2B82FB"/>
<path d="M0.569885 21.773V21.7373C0.635185 21.4756 0.569885 21.2793 0.569885 21.8384C0.569885 21.8384 0.569885 21.8146 0.569885 21.773Z" fill="#2B82FB"/>
<path d="M4.60663 19.9589C3.95363 19.6139 4.60663 20.0838 4.60663 19.9589V19.9589Z" fill="#2B82FB"/>
<path d="M4.78473 18.6266C4.78473 18.6266 4.78473 18.6266 4.78473 18.585C4.75771 18.5727 4.72835 18.5663 4.69866 18.5663C4.66896 18.5663 4.63961 18.5727 4.61258 18.585C4.61258 18.585 4.79067 18.6504 4.78473 18.6266Z" fill="#2B82FB"/>
<path d="M0.273061 23.486C0.273061 23.6525 0.332425 23.5633 0.373979 23.4324C0.415534 23.3016 0.373979 23.4741 0.373979 23.5157C0.373979 23.5573 0.463025 22.8139 0.474898 23.0042C0.48677 23.1945 0.474898 23.48 0.474898 23.7239C0.474898 23.9677 0.510516 24.1878 0.563943 23.9856C0.55144 23.7994 0.55144 23.6126 0.563943 23.4265C0.641116 23.4265 0.593625 23.8428 0.647053 23.8309C0.70048 23.819 0.688607 23.6822 0.682671 23.5395C0.747971 23.5395 0.724225 23.9201 0.783589 23.932C0.842953 23.9439 0.825144 23.932 0.860762 24.0153C0.89638 24.0986 0.943871 23.9261 0.937935 23.7298C0.931999 23.5335 0.937935 23.4562 0.97949 23.4384C0.97949 23.6228 0.97949 23.8012 1.00917 23.9796C1.03885 24.1581 1.07447 23.8964 1.07447 23.8369C1.07447 23.7774 1.16352 23.8369 1.19914 23.7952C1.22626 23.7227 1.24227 23.6465 1.24663 23.5692C1.28224 23.599 1.46627 24.4971 1.44253 23.8428C1.40691 23.6525 1.44253 23.7714 1.50189 23.8428C1.56719 23.9915 1.60281 23.8964 1.62062 23.7833C1.69185 23.5633 1.69185 23.7833 1.82245 23.938C1.95306 24.0926 1.82245 23.5752 1.76903 23.3432C1.76903 23.4503 1.84026 23.48 1.88776 23.6584C1.89999 23.7204 1.9287 23.778 1.97086 23.825C2.07772 23.938 2.16083 23.825 2.24987 23.825C2.33892 23.825 2.47546 23.9142 2.51701 23.825C2.55857 23.7358 2.3686 23.4146 2.32111 23.2956C2.36266 23.4027 2.38641 23.3611 2.43984 23.4562C2.47817 23.5232 2.51189 23.5928 2.54076 23.6644C2.57637 23.7417 2.60606 23.6644 2.61793 23.6644C2.6298 23.6644 2.61793 23.5395 2.61793 23.5335C2.61793 23.5276 2.7604 23.5811 2.79008 23.5335C2.81977 23.486 2.6298 23.0756 2.75447 23.1648C2.87913 23.254 3.16408 23.6049 3.17001 23.4324C3.17001 23.3611 2.96224 22.8852 3.22344 23.3194C3.20655 23.248 3.1785 23.1798 3.14033 23.1172C3.52619 23.712 3.57369 23.3432 3.66273 23.2361C3.75178 23.1291 3.88238 23.0875 3.74584 22.909C3.74584 22.8674 3.81708 22.909 3.8527 22.909C3.88831 22.909 3.95361 22.8436 3.9833 22.796C4.01298 22.7484 4.17326 22.7663 4.22075 22.683C4.26824 22.5997 4.30386 22.6354 4.17326 22.4986C4.04266 22.3618 4.03672 22.3321 4.0486 22.3083C4.06047 22.2845 4.13764 22.3083 4.23856 22.3856C4.33948 22.4629 4.23856 22.2845 4.33354 22.3083C4.42852 22.3321 4.61849 22.5046 4.43446 22.3083C4.25043 22.112 4.25043 22.0823 4.26231 22.0585C4.27418 22.0347 4.51757 22.3202 4.52944 22.3261C4.63036 22.3856 4.45821 22.0466 4.45227 22.005C4.44633 21.9633 4.55319 22.005 4.61849 22.005C4.68379 22.005 4.90937 22.0823 4.69566 21.8801L4.35729 21.547C4.47601 21.6124 4.68972 21.7552 4.79064 21.7968C4.89156 21.8384 4.44633 21.4816 4.39884 21.4399C4.35135 21.3983 4.90937 21.7968 5.04591 21.8622C5.18244 21.9276 5.01622 21.7076 5.04591 21.6719C5.07559 21.6362 5.23587 21.6302 5.09933 21.5291L4.98654 21.4459C4.98654 21.4459 4.98654 21.3745 4.88562 21.3091L4.60662 21.0949C4.60662 21.0949 5.24774 21.5053 5.36053 21.5232C5.47333 21.541 5.44364 21.3745 5.46145 21.3091C5.47926 21.2436 5.76421 21.1842 5.39022 20.9344C5.66329 21.0771 5.58018 20.8273 5.6158 20.7916C5.65142 20.7559 5.84732 20.7916 5.7464 20.7559C5.64548 20.7202 5.40803 20.6191 5.31898 20.5596C4.98061 20.3515 5.85919 20.6608 5.80576 20.5894C5.75234 20.518 4.98654 20.1552 5.08152 20.1849C5.17651 20.2147 6.10258 20.7143 5.88294 20.4764C5.75827 20.3455 5.9423 20.3396 5.71078 20.173C5.64548 20.0957 5.4852 19.9232 5.60393 19.9351C5.85919 20.0481 6.1382 20.0362 5.82357 19.9351C6.53 20.2206 6.27474 19.8519 5.63954 19.6437C5.79983 19.6853 5.99573 19.7507 6.15007 19.7864C6.30442 19.8221 6.30442 19.7567 6.30442 19.7091C6.30442 19.6615 6.48251 19.5664 6.19163 19.495C6.34597 19.495 6.38753 19.4534 6.38753 19.3998C6.38753 19.3463 6.2688 19.2809 5.91855 19.1679C5.91855 19.1143 6.35191 19.2452 6.45876 19.2333C6.32223 19.1917 6.18569 19.1262 6.18569 19.0965C6.70809 19.2511 6.58936 19.0965 6.58936 19.0132C6.35112 18.8749 6.0956 18.7689 5.82951 18.698C5.64548 18.6385 5.40803 18.5969 5.23587 18.5434C5.06372 18.4898 5.28336 18.5434 5.34866 18.5434C5.59799 18.5969 5.86513 18.6742 6.10258 18.7456C6.2311 18.7869 6.36193 18.8207 6.49438 18.8467C6.49438 18.8467 6.42315 18.7932 6.43502 18.7694C6.47998 18.7794 6.52659 18.7794 6.57155 18.7694C6.57155 18.7694 6.57155 18.7099 6.50032 18.6801C6.42908 18.6504 5.53863 18.5017 5.56237 18.4958C5.67516 18.4958 6.39346 18.5552 5.85919 18.3947C5.66329 18.3947 5.3546 18.3054 5.14089 18.2935C4.92718 18.2816 5.52675 18.4958 5.2893 18.4541C5.10557 18.3753 4.91724 18.3078 4.72534 18.2519C4.53538 18.2103 4.72534 18.3173 4.72534 18.3352C4.95213 18.4512 5.19386 18.5353 5.44364 18.585C5.58761 18.6076 5.72635 18.656 5.85325 18.7277C5.85325 18.7277 5.90074 18.8288 5.78202 18.7932C5.66819 18.7417 5.55722 18.6841 5.44958 18.6207C5.2883 18.5543 5.12142 18.5026 4.95092 18.466C5.28336 18.5493 5.14089 18.585 5.31898 18.6683C5.31898 18.7218 5.224 18.6683 5.11121 18.6683C4.99842 18.6683 5.06965 18.7218 5.06372 18.7515C5.05778 18.7813 4.91531 18.7515 4.80252 18.7039C4.76807 18.6917 4.73116 18.6879 4.69497 18.6931C4.65877 18.6983 4.62438 18.7122 4.59474 18.7337C4.59474 18.7337 4.34541 18.7872 4.55912 18.8467C4.8975 18.9478 5.00435 19.0073 4.91531 19.0489C4.82626 19.0905 4.45227 18.9181 4.69566 19.0489C4.93905 19.1798 4.4404 19.0489 4.64223 19.1322L5.11714 19.3344L5.51488 19.4831C5.31241 19.4376 5.11389 19.3759 4.92124 19.2987C4.78787 19.2829 4.65654 19.253 4.52944 19.2095C4.52944 19.2095 4.39884 19.156 4.39291 19.156C4.38697 19.156 4.5057 19.2154 4.52351 19.2392C4.69566 19.3047 4.66598 19.3522 4.64817 19.3701C4.63036 19.3879 5.07559 19.489 4.99248 19.5128C4.90937 19.5366 4.39884 19.2868 4.29792 19.269C4.19701 19.2511 4.40478 19.4117 4.61849 19.5128C4.8322 19.614 4.7669 19.5902 4.7669 19.6377C4.7669 19.6853 4.63036 19.6377 4.7669 19.6913C4.90343 19.7448 5.08746 19.8102 4.90937 19.8043C4.6363 19.7329 4.67785 19.6377 4.40478 19.5128C4.45227 19.5961 4.14358 19.4415 4.33948 19.5961C4.53538 19.7507 4.25043 19.6913 4.59474 19.8519C4.43446 19.7626 4.36322 19.7686 4.47601 19.8519C4.58881 19.9351 4.75502 20.0243 4.89156 20.1136C5.16463 20.292 4.7016 20.0719 4.60662 20.0243C4.51163 19.9768 4.01298 19.7329 4.1139 19.8221C4.21481 19.9113 4.33948 20.066 4.0011 19.8578C4.23262 20.0006 4.92718 20.405 4.59474 20.3158C4.43446 20.2742 3.88831 19.9113 4.0664 20.0957C4.0664 20.0957 4.36916 20.3515 4.29792 20.3277C4.22669 20.3039 4.02485 20.1671 3.9358 20.1314C3.84676 20.0957 4.00704 20.2266 4.0011 20.2504C3.99517 20.2742 4.2445 20.4228 4.31573 20.4942C4.38697 20.5656 4.31573 20.5834 4.47008 20.7381C4.5057 20.7678 4.77283 21.0236 4.53538 20.857C4.3751 20.7857 4.26824 20.7738 4.25043 20.8213C4.23262 20.8689 4.35135 20.97 4.38103 21.0414C4.41071 21.1128 3.84082 20.6013 3.71022 20.5418C3.57962 20.4823 3.95955 20.7916 4.00704 20.8273C4.05453 20.863 4.15545 21.0057 4.00704 20.9165C4.0664 20.9581 4.44633 21.2317 4.43446 21.2377C4.13938 21.0661 3.86112 20.8669 3.60337 20.6429C3.60337 20.6905 3.92987 20.9225 3.91206 20.9819C3.54994 20.6667 3.79333 20.9819 3.68648 20.9225C3.57962 20.863 3.47277 20.7321 3.43715 20.75C3.40153 20.7678 3.43715 20.8035 3.47277 20.8451C3.50839 20.8868 3.38966 20.8451 3.37779 20.8927L3.32436 21.0236C3.46855 21.1225 3.595 21.2452 3.69835 21.3864C3.78146 21.5113 3.47277 21.2496 3.40153 21.1901C3.24125 21.0414 3.12252 21.0057 3.17595 21.0949C3.27724 21.2034 3.40078 21.2887 3.53807 21.3448C3.63899 21.4161 3.66867 21.66 3.46089 21.4518C3.05722 21.0295 3.70429 21.8563 3.69241 21.8801C3.6093 21.7908 3.38372 21.5232 3.35404 21.547C3.32436 21.5708 3.38372 21.7968 3.24719 21.5827C3.21157 21.5827 3.33029 21.8265 3.19969 21.6778C3.06909 21.5291 2.91475 21.4161 2.99786 21.5232C3.14076 21.6967 3.31125 21.8454 3.50245 21.9633C3.55022 22.0277 3.59008 22.0976 3.62118 22.1715C3.62118 22.2131 3.41934 22.0109 3.3481 21.9336L2.94443 21.547L3.09284 21.8087C3.30655 22.1239 3.14033 21.9157 2.99786 21.8087C2.66542 21.4816 3.04535 22.2191 2.70104 21.8087C2.66542 21.7552 2.93256 22.2369 2.80196 22.0763C2.80196 22.0406 2.44577 21.5708 2.55263 21.7789C2.60606 21.892 2.80789 22.1537 2.77821 22.1893C2.74853 22.225 2.61199 22.0406 2.60012 22.0109C2.58825 21.9812 2.7604 22.1655 2.63574 22.0109C2.51107 21.8563 2.46358 21.8563 2.45171 21.8741C2.43984 21.892 2.38641 21.8741 2.45171 22.0109C2.51701 22.1477 2.70697 22.3856 2.73072 22.3499C2.81087 22.4229 2.88256 22.5047 2.94443 22.5938C2.98598 22.7068 2.84351 22.5284 2.79602 22.4808C2.63039 22.2975 2.48325 22.0983 2.35673 21.886C2.40995 21.9642 2.45006 22.0506 2.47546 22.1418C2.47546 22.1418 2.32111 21.9276 2.27956 21.8741C2.238 21.8206 2.22019 21.9276 2.22613 22.0109C2.24174 22.1479 2.26956 22.2833 2.30924 22.4154C2.30924 22.4748 2.44577 22.7603 2.3686 22.6592C2.29143 22.5581 2.27362 22.4629 2.20832 22.3083L2.07772 22.0109C2.07772 22.0585 2.22019 22.4154 2.20832 22.4273C2.16909 22.3327 2.11931 22.2429 2.05991 22.1596C2.02429 22.1239 1.97086 22.1596 2.05991 22.3083C2.03624 22.4241 2.03624 22.5434 2.05991 22.6592C2.01836 22.8258 1.94118 22.5105 1.81652 22.3142C1.69185 22.118 1.85807 22.6414 1.91744 22.5997C1.88208 22.8281 1.90663 23.0618 1.98867 23.2778C1.92337 23.0637 1.89963 22.9031 1.81652 22.683L1.69185 22.3618C1.79871 22.7246 1.76309 22.7722 1.69185 22.7782C1.62062 22.7841 1.53751 22.4808 1.4544 22.3023C1.50783 22.5284 1.36535 22.5105 1.34754 22.5462C1.32974 22.5819 1.37723 22.915 1.34754 22.9031C1.31786 22.8912 1.02698 22.0406 1.10415 22.6711C1.06854 22.6711 0.97949 22.2369 0.97949 22.451C0.983539 22.6498 0.97362 22.8485 0.949808 23.0458C0.949808 22.7901 0.949808 22.5581 0.949808 22.3202C0.949808 22.57 0.902317 22.8258 0.866698 23.0756C0.866698 23.0101 0.866698 22.4273 0.866698 22.4391C0.821082 22.7462 0.811121 23.0576 0.837017 23.367C0.791934 23.1239 0.775991 22.8763 0.789526 22.6295C0.789526 22.344 0.759844 22.6295 0.730162 22.5165C0.70048 22.4035 0.730162 22.2548 0.70048 22.3321C0.670798 22.4094 0.658925 22.5938 0.629243 22.5403C0.599764 22.4973 0.579546 22.4487 0.56988 22.3975C0.56988 22.3499 0.516452 21.9336 0.48677 22.0525L0.427407 22.4986C0.373979 22.8555 0.362107 22.9328 0.314616 22.8376C0.267125 22.7425 0.261188 23.0101 0.231506 23.0815C0.249315 23.022 0.255252 23.3492 0.273061 23.486Z" fill="#2B82FB"/>
<path d="M5.23588 17.8118C5.2893 17.8118 5.33086 17.7404 5.08153 17.7404C4.8322 17.7404 4.91531 17.7999 4.93312 17.8356H5.2062L5.23588 17.8118Z" fill="#2B82FB"/>
<path d="M6.55971 18.2638C6.80311 18.2638 6.40537 18.1686 6.62501 18.1508C6.84466 18.133 6.37569 17.9545 6.30445 17.8713C6.5894 17.9069 6.62501 17.8713 6.53003 17.8118C6.38327 17.7505 6.22986 17.7066 6.07293 17.6809C6.37569 17.7701 7.05243 17.6393 6.39943 17.6809C6.16791 17.6809 6.2154 17.6095 6.39943 17.6036C6.58346 17.5977 6.80904 17.6036 6.79717 17.5322C6.99901 17.4549 6.16791 17.4787 6.09074 17.4787C5.73508 17.4254 5.37586 17.3996 5.01626 17.4014C4.95689 17.4014 5.28933 17.4609 5.11718 17.4906C4.94502 17.5203 4.70163 17.4906 4.86191 17.5441C5.02219 17.5977 5.29527 17.5441 5.41993 17.5739L5.65145 17.6155C5.4318 17.6155 5.05781 17.6155 5.32495 17.6452C5.44368 17.675 5.8889 17.7463 6.01357 17.7582L5.1706 17.669C5.1706 17.7166 5.52085 17.7166 5.58615 17.7582C5.65145 17.7999 5.53272 17.8237 5.50898 17.8653C5.48523 17.9069 5.55647 17.9843 5.34276 18.0021C5.28933 18.0021 5.04 18.0021 5.04 18.0021C5.04 18.0021 5.45555 18.0497 5.52679 18.0616C5.59802 18.0735 5.22403 18.0616 5.03407 18.0616C5.15841 18.0775 5.27787 18.1201 5.38431 18.1865C5.45555 18.24 5.4971 18.2519 5.77611 18.2935C6.03756 18.315 6.30063 18.305 6.55971 18.2638Z" fill="#2B82FB"/>
<path d="M6.78528 17.5025C6.78528 17.5679 6.90994 17.4549 6.78528 17.5025V17.5025Z" fill="#2B82FB"/>
<path d="M6.61312 17.3776C6.91588 17.324 6.1857 17.2943 6.01948 17.2884C6.09072 17.2884 6.91588 17.2884 6.74966 17.2467C6.58344 17.2051 6.3163 17.2467 6.27475 17.1873C6.23319 17.1278 6.20945 17.104 6.27475 17.0683C6.35184 17.0635 6.42917 17.0635 6.50627 17.0683C6.76747 17.0683 6.71404 16.991 6.45877 16.9791C6.66061 16.9791 6.12634 16.9018 6.32817 16.8601C6.47983 16.8483 6.63239 16.8624 6.77934 16.9018C6.77934 16.8244 6.31037 16.8006 6.03729 16.7828C6.28068 16.7828 6.47065 16.7531 6.73185 16.7531C6.4313 16.7365 6.13307 16.6907 5.84139 16.6163C6.07291 16.6163 6.61906 16.6163 6.46471 16.5211C6.31037 16.4259 6.01948 16.6282 5.84139 16.5627C5.6633 16.4973 6.43503 16.5211 6.36379 16.4735C6.29256 16.4259 5.98386 16.4378 6.20351 16.4021H6.42316C6.31453 16.3926 6.20528 16.3926 6.09666 16.4021C6.29916 16.4066 6.50064 16.3723 6.69029 16.301C6.7734 16.2713 6.62499 16.2713 6.48846 16.301C6.66655 16.301 6.79121 16.2416 6.79715 16.1999C6.80308 16.1583 6.61906 16.1523 6.51814 16.1285C6.41722 16.1048 6.32224 16.075 6.3163 16.0393C6.44714 16.0121 6.5804 15.9981 6.71404 15.9977C6.61281 15.9619 6.5067 15.9418 6.39941 15.9382H6.28068C5.81765 15.9382 5.60394 16.0155 5.12903 16.0512C4.65412 16.0869 4.92125 16.1345 4.90344 16.194C4.88564 16.2534 4.67786 16.3427 4.90344 16.3665C5.10292 16.3865 5.30439 16.3684 5.49708 16.3129C5.75281 16.351 6.01045 16.3748 6.26881 16.3843C6.10853 16.3843 5.94231 16.3843 5.76422 16.3843C5.68847 16.3924 5.61318 16.4043 5.53864 16.42C5.40804 16.42 4.945 16.3843 4.945 16.42C4.945 16.4557 4.56507 16.6579 5.15871 16.652C5.09341 16.652 5.11715 16.7412 5.12903 16.759C5.1409 16.7769 4.89157 16.8125 4.85002 16.8482C4.80846 16.8839 4.79659 16.9434 4.93906 16.985C5.22401 17.0742 4.74316 17.0326 4.76691 17.0921C4.98422 17.0744 5.2026 17.0744 5.41991 17.0921C5.52676 17.0921 5.96012 17.1873 5.75235 17.211C5.4264 17.2148 5.10071 17.1909 4.77878 17.1397C4.77878 17.1694 4.71348 17.2824 4.93906 17.3122C5.23098 17.3209 5.52224 17.3447 5.81171 17.3835C6.07387 17.4588 6.35211 17.4567 6.61312 17.3776Z" fill="#2B82FB"/>
<path d="M5.26556 15.8966C5.14683 15.8609 4.98061 15.8966 4.99842 15.9442C5.01623 15.9918 5.28337 15.9323 5.26556 15.8966Z" fill="#2B82FB"/>
<path d="M6.32226 15.6468V15.617C6.12636 15.5814 5.85329 15.6884 6.32226 15.6468Z" fill="#2B82FB"/>
<path d="M5.59799 15.6587C5.93637 15.6052 6.3341 15.5338 6.69622 15.4921C6.53408 15.428 6.35952 15.4015 6.1857 15.4148C5.90075 15.4148 6.1857 15.504 6.1382 15.51C5.97199 15.51 5.84139 15.4505 6.01948 15.4029C6.22015 15.3851 6.41883 15.3492 6.61311 15.2959C6.98117 15.0877 6.06697 15.3494 6.01948 15.2959C5.97199 15.2423 6.65467 15.1412 6.69622 15.0877C6.73778 15.0342 6.80901 14.9806 6.3994 15.0342C6.3994 14.9747 6.6428 14.939 6.73184 14.8736C6.82089 14.8081 6.7734 14.7487 6.47658 14.7963C6.99304 14.7249 6.38753 14.5881 6.54188 14.487H6.5775C6.40534 14.5167 5.93043 14.6178 5.62768 14.7011C5.32492 14.7844 5.43771 14.7784 5.33679 14.8022C5.23588 14.826 4.80846 14.8974 5.02217 14.8914C5.23588 14.8855 5.25368 14.8498 5.27149 14.8914C5.27915 14.9117 5.29133 14.9301 5.30711 14.9449C5.48495 14.9583 5.66355 14.9583 5.84139 14.9449C6.22725 14.9449 5.12902 15.0401 5.14683 15.0401C5.07559 15.0401 5.54457 15.0401 5.36054 15.1055C5.17651 15.171 4.8322 15.2066 4.91531 15.2602C5.0513 15.2976 5.19487 15.2976 5.33086 15.2602C5.36648 15.2602 5.18245 15.2066 5.25962 15.2007C5.49114 15.2007 5.53269 15.3018 5.45552 15.3434C5.39877 15.3555 5.34012 15.3555 5.28337 15.3434C5.16541 15.3242 5.04514 15.3242 4.92718 15.3434C5.08747 15.3434 5.31898 15.3434 5.52082 15.3434C5.42584 15.3434 4.80846 15.4267 4.92718 15.4386C5.04591 15.4505 5.2893 15.4386 5.36054 15.4386C5.43178 15.4386 5.224 15.4802 5.19432 15.4921C5.0281 15.5695 5.93043 15.4565 5.19432 15.5754C4.89157 15.6468 4.79658 15.6884 5.11121 15.7122C5.42584 15.736 4.68379 15.8133 4.99248 15.8193C5.30118 15.8252 5.86513 15.8193 6.23912 15.8193C7.02272 15.7836 5.82358 15.6706 5.59799 15.6587Z" fill="#2B82FB"/>
<path d="M6.50626 14.487H6.47064C6.47064 14.487 6.63686 14.4691 6.50626 14.487Z" fill="#2B82FB"/>
<path d="M4.93313 13.3034C4.78677 13.2723 4.63411 13.2978 4.50571 13.3747C4.52945 13.4104 4.96281 13.3747 4.93313 13.3034Z" fill="#2B82FB"/>
<path d="M4.54133 12.9227C4.45228 13.0179 4.73723 12.9881 4.6838 12.9227C4.63687 12.9124 4.58826 12.9124 4.54133 12.9227Z" fill="#2B82FB"/>
<path d="M5.4199 14.6714C5.52345 14.6628 5.62648 14.6489 5.72859 14.6297C5.91856 14.5583 5.44365 14.6297 5.94824 14.5405C6.1204 14.5108 6.49439 14.3799 6.28068 14.3859C6.06697 14.3918 5.90669 14.4156 5.74047 14.4275C5.94361 14.409 6.14331 14.363 6.3341 14.2907C6.3341 14.2491 6.0729 14.2074 6.41721 14.142C6.20944 14.1777 5.96605 14.2253 5.91856 14.1777C6.01354 14.1777 6.54781 14.0766 6.5122 14.0349C6.47658 13.9933 6.09665 14.0349 6.03135 14.0349C5.65142 14.0052 6.3994 13.9338 6.42909 13.8922C6.45877 13.8506 6.21538 13.8446 6.17382 13.8327C6.031 13.835 5.88917 13.857 5.75234 13.8981C5.75234 13.8506 6.17976 13.797 6.25693 13.7792C6.3341 13.7613 6.28661 13.6959 6.3994 13.6602C6.5122 13.6245 6.54781 13.6126 6.3994 13.5948C6.251 13.577 6.30442 13.5472 6.3994 13.4996C6.49439 13.4521 6.7734 13.3688 6.58343 13.3926C6.44101 13.4287 6.29619 13.4546 6.15008 13.4699C6.10852 13.4699 6.28661 13.3985 6.3994 13.3747C6.84463 13.2736 6.23319 13.3331 6.16789 13.3747C6.19757 13.345 6.48845 13.2736 6.4647 13.232C6.44096 13.1904 6.28068 13.2677 6.16195 13.2796C6.04322 13.2915 6.48845 13.1071 6.50626 13.0952C6.52407 13.0833 6.31036 13.0952 6.24506 13.0952C6.07824 13.0538 5.90583 13.0397 5.73453 13.0536C5.62768 13.0536 5.41397 13.0536 5.54457 13.0179C5.67517 12.9822 6.06697 12.8454 6.04916 12.8097C6.03135 12.774 6.22131 12.7264 6.34004 12.6669C6.6428 12.5242 5.7464 12.6669 6.34004 12.4707C6.04916 12.548 5.79389 12.5837 5.877 12.5004C5.96011 12.4171 6.38753 12.2982 6.36972 12.2684C6.09019 12.339 5.81635 12.4304 5.5505 12.542C5.25542 12.6119 4.95593 12.6616 4.65411 12.6907C4.38104 12.7383 4.51757 12.8513 4.53538 12.8692C4.55319 12.887 4.99842 12.7145 5.12902 12.7026C5.01293 12.7138 4.89784 12.7337 4.78471 12.7621C4.9467 12.7182 5.11126 12.6844 5.27743 12.661C5.47927 12.661 5.22994 12.7383 5.07559 12.774C4.92125 12.8097 4.54726 12.9643 4.98061 12.8751C5.12902 12.8454 5.57425 12.7383 5.51488 12.8097C5.25756 12.8927 4.99332 12.9524 4.72535 12.9881C4.51757 13.0417 4.63036 13.0952 4.64224 13.119C4.65411 13.1428 4.51164 13.3212 5.14683 13.1666C4.94499 13.2558 5.27743 13.1666 5.30118 13.232C5.32492 13.2974 5.00436 13.3153 5.01623 13.339C5.0281 13.3628 5.8117 13.1844 5.51488 13.339C5.35654 13.4146 5.18884 13.4686 5.01623 13.4996C4.87376 13.4996 5.14683 13.4223 5.18245 13.3926C5.21807 13.3628 5.11121 13.3628 4.97467 13.3926C4.83814 13.4223 4.81439 13.3926 4.80846 13.3926C4.53538 13.4521 4.45821 13.577 4.72535 13.5175C4.72535 13.5591 4.54132 13.6305 4.61256 13.6662C4.77353 13.7253 4.95023 13.7253 5.11121 13.6662C5.23346 13.6209 5.35835 13.5832 5.4852 13.5532C5.57425 13.5532 6.03135 13.5532 5.89481 13.5532C5.68189 13.5933 5.47172 13.647 5.26556 13.7138C5.03997 13.7792 4.92125 13.8149 4.92125 13.8625C4.92125 13.91 4.66598 13.9755 4.64224 14.0171C4.67786 13.9576 6.68435 13.6364 4.98655 13.9814C4.68973 14.0409 4.60068 14.1004 4.79658 14.1063C4.88563 14.1063 5.52676 14.029 5.52676 14.029L5.39022 14.0647L5.0934 14.1182C4.87376 14.1598 4.66005 14.2074 4.67786 14.2312C4.99981 14.1442 5.33021 14.0924 5.66329 14.0766C5.72859 14.1361 5.01623 14.2193 4.89157 14.2728C4.7669 14.3264 4.89157 14.3264 4.89157 14.3442C4.89157 14.3621 4.73722 14.3859 4.7016 14.4156C4.66598 14.4453 5.224 14.481 5.224 14.481C5.09308 14.4859 4.96336 14.5079 4.83814 14.5464C4.79658 14.5464 4.83814 14.5821 4.92718 14.5821C5.12483 14.5684 5.32318 14.5684 5.52082 14.5821C5.46739 14.6297 5.00436 14.6951 4.87969 14.7427C4.75503 14.7903 4.98061 14.7963 5.1587 14.7427C5.24718 14.7245 5.33442 14.7006 5.4199 14.6714Z" fill="#2B82FB"/>
<path d="M5.39619 12.4945C5.6099 12.4409 5.93046 12.322 5.78205 12.316H5.73456L5.08749 12.4766C5.18855 12.4505 5.29196 12.4346 5.39619 12.429C5.25965 12.435 4.83223 12.6372 5.39619 12.4945Z" fill="#2B82FB"/>
<path d="M4.66007 12.3696C4.57103 12.3696 4.23859 12.429 4.25046 12.4707C4.26234 12.5123 4.68382 12.4052 4.66007 12.3696Z" fill="#2B82FB"/>
<path d="M6.50629 12.0722C6.50629 12.0722 6.26883 12.0722 6.25696 12.0722C6.24508 12.0722 6.35194 11.983 6.30445 11.9532C6.22484 11.9236 6.13982 11.9114 6.05512 11.9175C5.9651 11.9301 5.8759 11.948 5.78798 11.9711C5.78798 11.9711 6.15604 11.8402 6.0848 11.8462C6.01357 11.8521 5.56834 11.9532 5.40212 11.9889L4.44636 12.2328C4.44636 12.2685 5.14686 12.1198 5.09343 12.1554C5.04 12.1911 4.33357 12.3041 4.36919 12.3636C4.91534 12.203 4.60071 12.3636 4.85597 12.316C5.11124 12.2685 5.54459 12.1019 5.53272 12.203C5.52085 12.3041 5.18247 12.2922 5.03406 12.3101C4.79561 12.3726 4.56317 12.4562 4.33951 12.5599C4.66124 12.5216 4.9804 12.464 5.29526 12.3874C5.58781 12.2974 5.8916 12.2493 6.19759 12.2447C6.13229 12.1852 6.17978 12.1852 6.50629 12.0722Z" fill="#2B82FB"/>
<path d="M6.26883 11.6737C6.26883 11.6261 6.22134 11.5785 6.04918 11.5904C5.87703 11.6023 5.59802 11.6796 5.45554 11.6915C5.31307 11.7034 6.11448 11.4417 6.1501 11.4179C6.18572 11.3941 6.1501 11.3584 6.07886 11.3406C6.00763 11.3227 5.98388 11.2692 5.98388 11.2216C5.98388 11.1741 6.17385 11.061 5.78798 11.0967C5.74643 11.0967 4.69569 11.3525 4.92127 11.2395C4.92127 11.2395 5.24183 11.18 5.32494 11.1562C5.42902 11.1309 5.52896 11.0908 5.62176 11.0373C5.85328 10.9124 5.85922 10.8172 5.81766 10.7518C5.77611 10.6863 5.81766 10.6447 5.66332 10.6625C5.50897 10.6804 5.54459 10.7399 5.55646 10.7399C5.56834 10.7399 5.15279 10.8172 5.11123 10.8291C4.89159 10.8826 4.57696 10.948 4.36919 11.0075C4.16141 11.067 4.36919 11.067 4.24452 11.1027C4.11986 11.1384 3.96551 11.1919 4.04269 11.2216C4.11986 11.2514 4.22671 11.2871 4.63632 11.1919C4.76099 11.1562 5.04 11.0789 4.92127 11.0729C4.80254 11.067 5.18247 10.9897 5.21215 10.9897C5.24183 10.9897 5.68706 10.9183 5.59208 10.9897C5.4971 11.061 5.29526 11.0432 5.24183 11.0551C5.07141 11.0971 4.90465 11.1528 4.74318 11.2216C4.74318 11.2216 4.39887 11.4595 4.26827 11.4179C4.26827 11.4179 4.37512 11.3465 4.26827 11.3525C4.16141 11.3584 4.00707 11.6023 4.49385 11.4239C4.69569 11.3703 4.60664 11.4239 4.69569 11.4239C4.78473 11.4239 4.7788 11.4239 4.94502 11.3763C4.88565 11.3763 4.49385 11.5785 4.4523 11.5963C4.27421 11.6915 4.37512 11.7272 4.40481 11.7748C4.18516 11.9413 4.93908 11.6499 5.20028 11.5963C5.26558 11.5963 5.26558 11.5963 5.25964 11.5963C5.17561 11.6329 5.0881 11.6608 4.99844 11.6796C4.7788 11.7331 4.48198 11.8343 4.67194 11.8402C4.86191 11.8462 5.17653 11.7748 5.37244 11.7688C5.40805 11.8224 5.68113 11.7391 5.7583 11.7688C5.83547 11.7986 5.16466 11.8759 5.07562 11.8937C4.87123 11.9257 4.67174 11.9837 4.48198 12.0662C4.35138 12.1554 4.69569 12.1019 4.90346 12.0305C5.02219 11.9889 5.14092 11.9294 5.25964 11.8937C5.37837 11.858 5.3665 11.8937 5.31901 11.8937C5.64925 11.9036 5.97643 11.8278 6.26883 11.6737Z" fill="#2B82FB"/>
<path d="M5.47929 10.4425C5.03999 10.496 5.77017 10.3949 5.47929 10.4425V10.4425Z" fill="#2B82FB"/>
<path d="M5.319 10.5674C5.319 10.5257 5.59801 10.5079 5.68706 10.4663C5.7761 10.4246 5.59208 10.4246 5.47335 10.4663C5.35462 10.5079 4.28607 10.6744 4.51759 10.7101C4.32763 10.7577 4.19109 10.7756 4.21484 10.7101C3.92989 10.7815 4.30388 10.841 4.36325 10.8469C4.70202 10.8658 5.04149 10.8256 5.36649 10.728C6.18571 10.5079 5.27151 10.6625 5.319 10.5674Z" fill="#2B82FB"/>
<path d="M5.55645 9.56815C5.68112 9.56815 5.69299 9.56815 5.68112 9.51462C5.56833 9.52651 5.5149 9.55625 5.55645 9.56815Z" fill="#2B82FB"/>
<path d="M4.62444 8.96743H4.42854C4.26826 8.96743 4.13172 8.96743 4.15547 9.0388C4.35661 9.03279 4.55614 9.00081 4.74911 8.94363L4.62444 8.96743Z" fill="#2B82FB"/>
<path d="M4.62443 8.96743C4.5592 8.96294 4.49375 8.96294 4.42853 8.96743H4.62443Z" fill="#2B82FB"/>
<path d="M3.734 9.12207C3.734 9.12207 3.84679 9.04475 3.82304 9.00311C3.49654 9.00906 3.72213 9.09828 3.734 9.12207Z" fill="#2B82FB"/>
<path d="M4.3395 10.6506C4.3395 10.5971 4.82034 10.4663 4.74317 10.4484C4.666 10.4306 4.51759 10.4484 4.43448 10.4484C4.35137 10.4484 4.292 10.4008 4.39886 10.4008C4.26401 10.4094 4.13057 10.4334 4.00112 10.4722C4.28607 10.4008 4.46416 10.3473 4.72536 10.264C4.52946 10.264 3.99519 10.3473 4.13172 10.264C4.3383 10.1657 4.56222 10.1091 4.79066 10.0975C4.82034 10.0975 4.93907 10.0975 4.9272 10.0618C4.91532 10.0261 4.87377 10.0618 4.82628 10.0618C4.67063 10.0656 4.51565 10.0835 4.36324 10.1153C4.13766 10.1748 3.87052 10.2105 3.91208 10.1153C3.95363 10.0202 4.41667 9.9726 4.5354 9.91312C4.65412 9.85365 4.42854 9.87744 4.31575 9.87744C4.19333 9.92953 4.06607 9.96938 3.93582 9.99639C3.60339 10.0559 3.65088 9.99639 3.93582 9.91907C3.82897 9.91907 3.66275 9.96071 3.71024 9.91907C3.84617 9.85737 3.9872 9.80762 4.13172 9.77038L5.3843 9.47894C5.08748 9.55031 4.73723 9.54436 4.48791 9.61573C4.35503 9.66858 4.21803 9.71036 4.0783 9.74064C3.91208 9.74064 4.15547 9.66332 4.18515 9.65142C4.38105 9.58005 4.96282 9.4492 4.82628 9.41351C4.58786 9.46289 4.35513 9.53663 4.13172 9.63358C3.67462 9.81796 3.84084 9.63358 3.81709 9.63358C3.79335 9.63358 3.56183 9.59194 3.68649 9.53247C3.81116 9.47299 4.04268 9.44325 4.1436 9.41351C4.39043 9.3674 4.63277 9.29973 4.86783 9.21129C4.86783 9.21129 4.0961 9.38377 4.10204 9.36593C4.10798 9.34808 4.28013 9.3124 4.17328 9.31835C4.06642 9.32429 3.86459 9.38972 3.74586 9.40756C3.28282 9.47299 3.74586 9.32429 3.97738 9.28266C3.76367 9.32429 3.38374 9.37188 3.73399 9.28266C4.08423 9.19344 4.71942 9.0269 5.06373 8.97932H4.83815C4.66006 8.97932 4.4701 8.97932 4.24451 9.00906C3.75179 9.15776 4.39886 8.87821 4.39886 8.88416C4.39886 8.89011 3.80522 9.0507 4.00112 8.93769C4.06642 8.902 3.7696 8.93769 3.75179 8.88416C3.73399 8.83063 4.04268 8.78899 4.0308 8.7652C4.01893 8.74141 3.08098 8.94364 3.38968 8.81278C3.56777 8.73546 4.16734 8.6403 4.45822 8.57487H4.01893C3.86594 8.56844 3.71271 8.57841 3.56183 8.60461C3.56183 8.60461 3.61526 8.64625 3.56183 8.66409C3.3778 8.74736 3.39561 8.55108 3.39561 8.55108C3.39561 8.55108 3.27688 8.43807 3.54996 8.42023C4.42261 8.35481 3.21158 8.30128 3.41342 8.20611C3.68267 8.12869 3.95621 8.06712 4.23264 8.02173C4.5643 7.96778 4.8999 7.94192 5.23589 7.94441C5.40804 7.97415 5.27151 7.99199 4.98062 8.02768C4.78472 8.02768 4.61257 8.17042 4.54133 8.16448C4.80099 8.16579 5.06055 8.15388 5.319 8.12879C5.1884 8.12879 4.0783 8.31912 4.41667 8.30722C4.69417 8.26993 4.97372 8.25007 5.2537 8.24775C5.39023 8.24775 5.60988 8.33696 5.20027 8.39644C5.54458 8.33696 5.36649 8.39644 5.20027 8.46781C5.14684 8.46781 4.70755 8.61651 4.99843 8.58082C5.28932 8.54513 5.52677 8.50945 5.3843 8.58082C5.24182 8.65219 5.43773 8.61056 5.46741 8.66409C5.12903 8.79494 5.53864 8.902 5.55645 8.98527C5.57426 9.06854 5.55645 9.05664 5.43773 9.09828C5.319 9.13991 5.06967 9.1637 5.06967 9.1637C5.06967 9.1637 5.41398 9.1637 5.48522 9.1637C5.55645 9.1637 5.48522 9.24697 5.37836 9.3005C4.94501 9.4373 5.37836 9.3005 5.50896 9.3005C5.63956 9.3005 5.59207 9.33024 5.5802 9.34808C5.5072 9.37301 5.43145 9.38898 5.35462 9.39567C5.32493 9.39567 5.68112 9.39567 5.65737 9.39567C5.46715 9.50438 5.26866 9.59785 5.06373 9.67521C4.79066 9.80606 5.44366 9.61573 5.60394 9.58005C5.91857 9.50867 5.47928 9.699 5.69893 9.66332C5.23589 9.77038 5.80578 9.79417 5.6455 9.8358C5.44069 9.86904 5.24111 9.92903 5.05186 10.0142L4.83222 10.1391L5.47928 9.94286C5.52083 9.94286 5.72861 9.85365 5.75235 9.85365C5.7761 9.85365 5.75235 9.88933 5.63956 9.91907C5.63956 9.91907 5.74048 9.96665 5.63956 9.99639C5.4496 10.0499 5.40804 10.0618 5.43179 10.0975C5.45553 10.1332 5.65143 10.0975 5.43179 10.1451C5.55052 10.2046 5.43179 10.1451 5.77016 10.1094C5.66331 10.1094 5.73454 10.2938 5.23589 10.3295C5.07224 10.4093 4.90127 10.473 4.72536 10.5198L4.45229 10.5912C4.45229 10.5912 4.46416 10.615 4.3395 10.6506ZM4.88564 9.75253C4.96282 9.699 4.68974 9.75253 4.54133 9.75253L4.32762 9.81796C4.51586 9.82452 4.704 9.80246 4.88564 9.75253Z" fill="#2B82FB"/>
<path d="M4.51164 7.59943C4.63669 7.59915 4.7609 7.57908 4.8797 7.53996C4.86189 7.50427 4.25638 7.61133 4.51164 7.59943Z" fill="#2B82FB"/>
<path d="M5.05186 7.73029C4.94501 7.73029 4.77879 7.73029 4.666 7.73029C4.45229 7.68865 4.76692 7.70055 4.93314 7.67676C5.09935 7.65297 5.47335 7.57565 5.20621 7.58159C4.93907 7.58754 4.68974 7.62918 4.48197 7.64702C4.03081 7.78382 4.17922 7.61133 4.19109 7.61133C4.09017 7.61133 3.91802 7.64702 3.75773 7.65891H3.65088C3.50706 7.63969 3.36134 7.63969 3.21752 7.65891C3.07505 7.71244 3.3125 7.71244 3.48466 7.6946C3.53215 7.6946 4.0783 7.65297 3.8824 7.6946C3.6865 7.73624 3.46685 7.73029 3.28876 7.77192C3.11067 7.81356 3.28876 7.8433 3.33031 7.86709C3.37187 7.89088 3.41342 7.9682 3.46685 8.01578C3.79866 8.04828 4.13354 8.02618 4.45823 7.95036C4.83815 7.90277 5.39024 7.76597 5.05186 7.73029Z" fill="#2B82FB"/>
<path d="M3.65087 7.64107H3.75773C3.88239 7.63512 3.42529 7.62917 3.65087 7.64107Z" fill="#2B82FB"/>
<path d="M3.72211 6.79649C3.56182 6.79649 3.01568 6.79649 3.18783 6.79649C3.35999 6.79649 3.73398 6.83218 3.72211 6.79649Z" fill="#2B82FB"/>
<path d="M3.94768 6.63589C3.74584 6.56452 3.1522 6.63589 3.25312 6.67753C3.35404 6.71916 4.23263 6.68348 3.94768 6.63589Z" fill="#2B82FB"/>
<path d="M3.9477 6.6359C3.78742 6.58237 4.09611 6.66564 3.9477 6.6359V6.6359Z" fill="#2B82FB"/>
<path d="M4.02485 3.85829C3.76959 3.67986 3.43122 3.64417 3.77552 3.81071C3.97143 3.90587 4.23263 3.99509 4.02485 3.85829Z" fill="#2B82FB"/>
<path d="M6.03729 3.8226C5.66924 3.52521 5.91263 3.65606 6.03729 3.8226V3.8226Z" fill="#2B82FB"/>
<path d="M5.22402 7.46264C5.14091 7.46264 4.7966 7.38531 5.17059 7.37937C5.44366 7.37937 5.34868 7.2961 5.33681 7.27825C5.32493 7.26041 5.33681 7.12361 5.14684 7.06414C4.95688 7.00466 5.29525 6.92734 5.2537 6.86191C5.21214 6.79649 4.51165 6.80838 4.98062 6.7608C5.27151 6.7608 4.98062 6.62995 5.05186 6.6359C5.31306 6.6359 5.15872 6.48125 5.14091 6.43962C5.1231 6.39798 5.25963 6.3504 5.22995 6.27903C5.14182 6.29714 5.05094 6.29714 4.96281 6.27903C4.85002 6.27903 4.93313 6.20766 4.9272 6.18981C4.92126 6.17197 4.79066 6.18981 4.77879 6.13628C4.76691 6.08275 4.90345 6.1006 5.04592 6.13628V6.18386C5.319 6.18386 5.319 6.13628 5.20621 6.07086C5.09342 6.00543 5.37243 6.04112 5.35462 5.99948C5.33681 5.95785 5.03999 5.89242 4.90345 5.827C4.76691 5.76157 5.16465 5.827 5.27151 5.79131C5.53864 5.79131 5.1231 5.63072 5.22995 5.57124C5.33681 5.51177 5.31306 5.57124 5.05186 5.49987C4.79066 5.4285 5.1231 5.4285 5.1231 5.41065C5.1231 5.39281 5.00437 5.30954 5.43772 5.41065C5.5802 5.41065 5.27744 5.30954 5.21808 5.28575C4.95094 5.19653 4.82628 5.19653 4.82034 5.13111C4.95688 5.13111 4.72536 5.06568 4.54133 5.03594C4.23749 4.97749 3.93948 4.8919 3.65088 4.78019C3.91177 4.81206 4.16851 4.87188 4.41667 4.95862C4.5982 5.0072 4.77662 5.06678 4.95094 5.13705C5.20621 5.21438 5.66331 5.30954 5.21808 5.13705C5.34868 5.13705 5.48522 5.18464 5.47928 5.13705C5.319 5.04784 5.319 5.04784 5.34868 4.98241C5.37836 4.91699 5.52677 4.98241 5.3843 4.83967C5.31354 4.78552 5.23563 4.74148 5.15278 4.70882C5.3182 4.77355 5.49221 4.81363 5.66924 4.82777L5.319 4.69692L4.89751 4.54823C5.20027 4.65529 5.53864 4.77424 5.56833 4.72071C5.59801 4.66718 5.66331 4.64339 5.41992 4.52443C5.50616 4.56763 5.60327 4.58419 5.69893 4.57202C5.75235 4.57202 5.65143 4.51849 5.48522 4.44117C5.48522 4.44117 5.74642 4.50064 5.75235 4.4947C5.75829 4.48875 5.42585 4.28058 5.319 4.22705C5.21214 4.17352 5.08154 4.06051 5.08154 4.09619C5.08154 4.13188 4.95094 4.09619 4.94501 4.09619C4.93907 4.09619 4.97469 4.01293 5.16465 4.06646C5.35462 4.11999 5.50896 4.25084 5.63363 4.29247C5.75829 4.33411 5.34868 4.09025 5.30119 4.05456C5.2537 4.01887 5.52083 4.10809 5.56833 4.12593C5.82359 4.2211 5.89483 4.19731 5.53271 3.95345C5.47334 3.91181 5.65143 3.89397 5.81765 4.03672C5.74048 3.97724 5.53864 3.84044 5.54458 3.8107C5.55052 3.78096 5.7108 3.86423 5.78797 3.89397C5.86514 3.92371 5.45553 3.64416 5.37836 3.59063C5.48522 3.66795 5.48522 3.59063 5.66331 3.73933C5.7747 3.82448 5.89171 3.90198 6.01355 3.97129C5.98424 3.92996 5.95039 3.89205 5.91264 3.85828V3.81665C5.94232 3.81665 5.91264 3.81665 5.91264 3.77501C5.78203 3.63822 5.56239 3.44194 5.37836 3.2754C5.19433 3.10886 5.06373 3.03749 5.08154 2.99586L5.62769 3.43599C5.76423 3.54305 5.7108 3.47168 5.78203 3.51926C5.85327 3.56684 6.0373 3.73338 6.07292 3.73933C6.10854 3.74528 6.12634 3.73933 6.07292 3.66795C6.01949 3.59658 5.75235 3.43599 5.66924 3.34677C5.58613 3.25756 5.73454 3.34677 5.80578 3.39436C6.09073 3.59658 6.11447 3.66795 6.13822 3.59063C6.16196 3.51331 5.78797 3.16239 5.43179 2.87095C5.23589 2.71631 5.00437 2.51409 4.7966 2.32376C4.37511 1.9312 4.91532 2.53788 4.91532 2.54382L4.72536 2.40703L4.52352 2.22859C4.52352 2.26428 4.72536 2.43676 4.76098 2.52598C4.7966 2.6152 4.76098 2.67468 4.76098 2.78768C4.76098 2.90069 4.89158 3.01965 4.67787 2.85311C4.6007 2.79958 4.3395 2.6033 4.35137 2.56762C4.35137 2.64494 4.2267 2.69847 4.292 2.83527C4.48774 3.02709 4.70719 3.19299 4.94501 3.32893C4.75504 3.19808 4.85002 3.32893 4.85002 3.32893C4.75072 3.27893 4.65545 3.22126 4.56508 3.15645C4.43448 3.07912 3.84678 2.76984 4.13172 3.02559C4.31977 3.15166 4.5184 3.26111 4.72536 3.35272C4.86783 3.43599 4.98062 3.59658 4.85596 3.53116C4.85596 3.53116 4.63631 3.36462 4.60663 3.37651C4.57695 3.38841 4.71349 3.50736 4.55914 3.44789C4.45318 3.40937 4.35167 3.35952 4.25639 3.29919C4.45229 3.4122 5.52083 3.99508 5.20621 3.92371C5.1231 3.90587 3.97144 3.26351 3.98925 3.26351C4.20174 3.43124 4.42815 3.58048 4.666 3.70959C4.49308 3.63081 4.31448 3.5652 4.13172 3.51331C3.91208 3.51331 4.58882 3.70959 4.50571 3.6739C4.61851 3.72743 4.56508 3.78096 4.61851 3.80475C4.79066 3.88802 4.72536 3.87613 4.72536 3.91181C4.60663 3.87018 4.05455 3.64416 4.21483 3.63822C4.01299 3.53116 3.62119 3.43599 3.85865 3.59063C4.0961 3.74528 4.55321 3.90587 4.63631 3.99508L4.31575 3.85828C4.21551 3.80263 4.10743 3.76252 3.99519 3.73933C3.92989 3.79881 4.4879 4.02482 4.67787 4.10809C4.67787 4.15567 4.45229 4.01887 4.41667 4.06051C4.38105 4.10214 4.38699 4.10809 4.30388 4.10809C4.17816 4.11391 4.05225 4.10189 3.92989 4.0724C3.80522 4.0724 3.67462 3.98319 3.68649 4.03672C3.69837 4.09025 3.79929 4.14378 3.68649 4.13783C3.5737 4.13188 3.57964 4.13783 3.59151 4.13783C3.60339 4.13783 3.72211 4.25084 3.79929 4.32221C3.87646 4.39358 4.07236 4.51254 3.95363 4.50064C3.8349 4.48875 3.63307 4.39953 3.63307 4.39953C3.8113 4.48205 3.99358 4.5555 4.17921 4.6196C4.02487 4.6196 4.31575 4.7445 4.24451 4.73855C4.01938 4.69562 3.79728 4.638 3.57964 4.56607C3.68065 4.58955 3.77836 4.62552 3.87052 4.67313C3.80645 4.64567 3.73658 4.63456 3.66717 4.64078C3.59776 4.64701 3.53097 4.67039 3.47278 4.70882C3.42529 4.7564 3.21158 4.79803 3.59151 4.84561C3.97144 4.8932 3.74586 4.92888 4.14953 5.05973C4.20296 5.05973 4.45229 5.16679 4.3395 5.16085C4.24425 5.12899 4.15107 5.09125 4.06049 5.04784C3.87052 5.04784 4.24451 5.17274 3.98925 5.12516C3.73399 5.07758 3.65088 5.04784 3.61526 5.08947C3.57964 5.13111 3.34218 5.04189 3.34812 5.08947C3.4431 5.14895 3.5084 5.17869 3.34812 5.18464C3.66379 5.25287 3.98282 5.30449 4.30388 5.33928C4.43448 5.33928 5.01624 5.43444 4.73723 5.43444C4.18515 5.38686 5.01031 5.51771 4.95688 5.5653C4.8452 5.57222 4.73312 5.5622 4.62444 5.53556C4.39886 5.49392 4.55321 5.47013 4.42854 5.44039L3.98925 5.39281H3.69837H3.5737C3.5737 5.39281 4.16734 5.52366 3.94769 5.51177C3.85084 5.50548 3.75367 5.50548 3.65681 5.51177C3.84084 5.51177 3.88239 5.64856 3.75773 5.63667C3.59555 5.60472 3.43009 5.59274 3.26501 5.60098C3.49059 5.60098 3.32438 5.66046 3.45498 5.68425C3.5665 5.70543 3.67985 5.71539 3.79335 5.71399H3.86459C4.06049 5.71399 4.54133 5.88647 4.68974 5.92811C4.50646 5.88541 4.31969 5.85953 4.13172 5.85079C4.13172 5.90432 3.87646 5.85079 3.85865 5.88053C3.84084 5.91027 4.78472 6.02327 4.74317 6.1006C4.39622 6.02237 4.04209 5.98051 3.68649 5.97569C3.36593 5.97569 3.59745 6.01733 3.81709 6.03517C3.60338 6.03517 2.86134 5.97569 3.35406 6.03517C4.13172 6.13628 3.21752 6.03517 3.41936 6.13033C3.62119 6.2255 3.94769 6.18981 3.92989 6.13033C4.16904 6.12524 4.40801 6.14719 4.64225 6.19576C4.47603 6.19576 4.29794 6.23145 4.10798 6.23145C3.91801 6.23145 3.73399 6.23145 3.54996 6.23145C3.36593 6.23145 3.30063 6.27308 3.21158 6.27308H3.74586H3.28876C3.12847 6.27308 3.33031 6.33256 3.4431 6.3504C3.34812 6.3504 3.1819 6.4872 3.16409 6.48125C3.50247 6.52884 3.92395 6.48125 4.25045 6.48125C4.3573 6.48125 4.35137 6.52884 4.3395 6.54073C4.32762 6.55263 4.15547 6.54073 4.10204 6.54073C3.87052 6.58831 4.4048 6.60616 4.4701 6.61805C4.5354 6.62995 4.57695 6.70132 4.52352 6.70132C4.35298 6.66702 4.1805 6.64319 4.00706 6.62995L3.31844 6.66563C3.40748 6.66563 4.13766 6.71916 4.26826 6.71322C4.39886 6.70727 4.26826 6.79054 4.10798 6.79648C3.94769 6.80243 3.29469 6.79649 3.39561 6.8857C3.49653 6.97492 3.55589 6.93328 3.48466 6.96897C3.41342 7.00466 3.30063 6.96897 3.28282 6.96897C3.26501 6.96897 3.78741 7.05224 3.87646 7.07008C3.9655 7.08793 3.63307 7.1593 3.58558 7.18309C3.53808 7.20688 3.26501 7.26636 3.63307 7.26041C3.88833 7.26041 4.17328 7.21283 4.2267 7.26041C3.92395 7.26041 3.13441 7.2961 3.40155 7.37342C3.40155 7.43885 4.37511 7.30799 4.58882 7.33773C4.63038 7.33773 3.7043 7.45074 3.67462 7.4329C3.73992 7.46858 4.56508 7.4329 4.75504 7.4329C4.94501 7.4329 5.5149 7.52211 5.22402 7.46264Z" fill="#2B82FB"/>
<path d="M6.04917 1.47917C6.01949 1.40185 5.88295 1.08661 5.82952 1.11635C5.7761 1.14609 6.00761 1.47917 6.04917 1.47917Z" fill="#2B82FB"/>
<path d="M7.18301 2.7758C7.18301 2.61521 7.2305 2.91854 7.18301 2.7758V2.7758Z" fill="#2B82FB"/>
<path d="M5.04594 2.37729C5.16986 2.54645 5.31558 2.69845 5.47929 2.82932C5.47929 2.82932 5.47929 2.65683 5.63957 2.90069C5.69894 2.98991 5.59208 2.90069 5.693 3.0256C5.85388 3.20657 6.03516 3.36824 6.23321 3.50737C6.35788 3.57874 6.39349 3.50737 6.32226 3.38246C6.25102 3.25756 5.89484 2.84716 6.10261 3.0137C6.17978 3.07913 6.31632 3.26351 6.39943 3.34083C6.48254 3.41815 6.48254 3.34083 6.48848 3.34083C6.49441 3.34083 6.38756 3.16239 6.35788 3.07318C6.32819 2.98396 6.4113 3.07318 6.47067 3.07318C6.53003 3.07318 6.80904 3.25161 6.57752 2.91259C6.5419 2.85906 6.26289 2.44271 6.38162 2.57356C6.50035 2.70442 6.57752 2.85906 6.68438 2.98991C6.62501 2.91854 6.49441 2.62115 6.73187 2.94827C6.83872 3.10292 6.67844 2.82337 6.69031 2.80553C6.70219 2.78768 6.8684 2.98991 6.91589 3.0137C6.96339 3.03749 6.79123 2.75795 6.85059 2.81742C6.90996 2.8769 7.03462 3.04344 7.05837 3.00775C7.08211 2.97207 6.99307 2.78768 6.99307 2.78174C6.99307 2.77579 7.09992 2.85311 7.12367 2.81742C7.14741 2.78174 7.2424 2.93638 7.18303 2.75795C7.17666 2.6925 7.16066 2.62836 7.13554 2.56762C7.13554 2.56762 7.13554 2.64494 7.08805 2.56762L6.88621 2.22265C6.76749 2.02042 6.59533 1.76467 6.47067 1.52081C6.4049 1.38653 6.32318 1.26072 6.22728 1.1461C6.16198 1.08662 6.32819 1.44349 6.35194 1.49702C6.44098 1.74682 6.20947 1.36022 6.20947 1.43159C6.23018 1.50262 6.26012 1.57061 6.29851 1.63382C6.22728 1.55055 6.09667 1.34832 6.04918 1.34832L6.41724 2.18696C6.51816 2.52003 6.23321 1.92526 6.2154 1.9431C6.19759 1.96094 6.33413 2.19291 6.33413 2.24049C6.33413 2.28807 6.24508 2.15722 6.19759 2.09774L5.85922 1.63976C5.85922 1.69924 6.09074 2.18101 6.06699 2.15722C5.8889 1.98473 5.76424 1.56244 5.68113 1.46133C5.59802 1.36022 5.78205 1.955 5.50304 1.55649L5.86516 2.07395C5.82954 2.12153 5.56834 1.67545 5.60989 1.87767C5.60989 1.97284 5.60989 2.00853 5.78205 2.19291C5.78205 2.25833 5.74049 2.25833 5.72268 2.28212C5.77611 2.2048 5.40212 1.72303 5.51491 2.02637C5.55053 2.10964 5.37244 1.91336 5.34276 1.90741C5.31307 1.90147 5.31901 2.07395 5.31901 2.10964C5.31901 2.14532 4.92127 1.85388 5.14686 2.10964C5.22403 2.19885 5.45555 2.41892 5.48523 2.4665C5.51491 2.51409 5.35463 2.42487 5.48523 2.54383C5.52292 2.582 5.55673 2.62384 5.58615 2.66873C5.40475 2.5622 5.23382 2.43873 5.07562 2.29997C5.07562 2.26428 5.38431 2.44866 5.04 2.09179C4.98351 2.07744 4.92434 2.07744 4.86785 2.09179C4.86785 2.12748 4.86785 2.21075 4.72537 2.09179C4.72537 2.09179 4.72537 2.09179 4.72537 2.19885C4.86785 2.40703 5.04594 2.41892 5.04594 2.37729Z" fill="#2B82FB"/>
<path d="M8.5365 0.931976C8.5365 1.07472 8.56618 0.931976 8.5365 0.931976V0.931976Z" fill="#2B82FB"/>
<path d="M6.50627 1.19963C6.54783 1.19963 6.80903 1.47917 6.73779 1.53865C6.58938 1.33643 6.94557 2.24049 6.81497 1.97879C6.73779 1.83009 6.64281 1.62192 6.60126 1.65166C6.5597 1.6814 6.60126 1.68735 6.60126 1.77656C6.79122 2.17506 6.89214 2.11559 7.01087 2.31186C7.12959 2.50814 7.23051 2.83527 7.27207 2.82932C7.31362 2.82337 7.31362 2.82932 7.32549 2.75795C7.33737 2.68657 7.32549 2.4903 7.36705 2.60925C7.4086 2.72821 7.43235 2.72821 7.36705 2.53788C7.36705 2.53788 7.40267 2.45461 7.42048 2.53788C7.42048 2.50219 7.36111 2.24644 7.36111 2.24049C7.36111 2.23454 7.45016 2.62709 7.49171 2.68062C7.53327 2.73415 7.49171 2.52598 7.49171 2.4903C7.49171 2.45461 7.4086 2.02042 7.38486 2.15127C7.30175 1.85983 7.42048 2.15127 7.38486 1.99663C7.34924 1.84199 7.23645 1.51486 7.23645 1.51486C7.23645 1.51486 7.41454 2.07395 7.46797 2.2048C7.5214 2.33565 7.57482 2.45461 7.61638 2.53788C7.65793 2.62115 7.78853 2.73415 7.78853 2.752C7.78853 2.76984 7.69355 2.33565 7.67574 2.25833C7.65793 2.18101 7.77072 2.59736 7.80634 2.63304C7.84196 2.66873 7.80634 2.48435 7.80634 2.32971C7.80634 2.17506 7.80634 2.2167 7.8479 2.43082C7.88945 2.64494 7.90726 2.54977 7.91913 2.53788C7.93101 2.52598 7.98443 2.53788 7.9785 2.41892C7.97256 2.29997 7.9785 2.02637 7.9785 2.18101C8.04973 2.59736 8.06161 2.56167 8.02599 2.03232C8.06161 2.03232 8.02599 2.3535 8.06754 2.44271C8.06754 2.44271 8.12691 2.64494 8.13878 2.60925C8.15065 2.57357 8.10316 1.88957 8.18033 2.14532C8.21595 2.28212 8.18033 2.52598 8.23376 2.50219C8.28719 2.4784 8.26344 2.19885 8.31093 2.05611C8.33977 1.90294 8.35763 1.7479 8.36436 1.59218C8.28532 1.4687 8.25173 1.32146 8.26938 1.17584C8.26938 0.967665 8.41185 1.17584 8.42372 0.908187C8.4701 0.741752 8.49209 0.56945 8.48902 0.396678C8.48002 0.503064 8.46214 0.608509 8.4356 0.71191C8.48902 0.533477 8.37623 0.325305 8.33468 0.349096C8.27919 0.503249 8.26287 0.668816 8.28719 0.830866C8.25157 1.00335 8.25751 1.42564 8.19221 1.17584C8.12691 0.92603 8.09722 1.02714 8.1091 1.27695C8.1091 1.11636 8.03192 0.955769 8.00224 0.961717C7.97256 0.967665 8.11503 0.676224 8.00224 0.664328C7.88945 0.652433 7.90726 0.545373 7.85977 0.563216C7.81228 0.581059 7.92507 1.52676 7.85977 1.2829C7.79447 1.03904 7.74104 0.253932 7.61044 0.545373C7.60189 0.722309 7.62398 0.899393 7.67574 1.06878C7.71136 1.271 7.67574 1.30074 7.72323 1.51486C7.68761 1.51486 7.61638 1.08662 7.59857 0.97956C7.58486 0.80665 7.55505 0.635402 7.50952 0.468052C7.4739 0.343148 7.46203 0.503738 7.4739 0.587007C7.55203 0.820946 7.59212 1.06595 7.59263 1.31264C7.59263 1.37211 7.52733 1.31264 7.48578 1.18773C7.50895 1.02128 7.49059 0.851672 7.43235 0.694067C7.43235 0.694067 7.43235 0.860605 7.38486 0.735702C7.33737 0.610798 7.3433 0.646485 7.30175 0.670276C7.26019 0.694067 7.24239 0.49779 7.19489 0.509686C7.1474 0.521582 6.95744 0.896292 7.03461 1.0093C7.00493 0.961717 6.98118 0.842762 6.9515 0.783284C6.92182 0.723806 6.86839 0.783284 6.85058 0.783284C6.83278 0.783284 6.70218 0.682172 6.66062 0.747597C6.61907 0.813023 6.78528 1.21152 6.70811 1.07472C6.63094 0.937926 6.48847 0.759493 6.57751 0.985508C6.46472 0.753545 6.39942 0.985508 6.32225 0.931978C6.24507 0.878448 6.45285 1.45538 6.5597 1.59218C6.52203 1.53493 6.49768 1.46994 6.48843 1.40199C6.47918 1.33405 6.48528 1.26489 6.50627 1.19963Z" fill="#2B82FB"/>
<path d="M9.17766 1.1342H9.20734C9.20734 1.03309 9.20734 0.967665 9.17766 0.997404C9.14798 1.12231 9.14798 1.1342 9.17766 1.1342Z" fill="#2B82FB"/>
<path d="M9.52195 1.00335H9.55757C9.75941 0.432367 9.43291 0.991458 9.52195 1.00335Z" fill="#2B82FB"/>
<path d="M8.45339 2.60331C8.48307 2.64494 8.50088 2.66873 8.5365 2.60331C8.57212 2.53788 8.62555 2.34755 8.58993 2.56167C8.61961 2.43677 8.69085 2.35945 8.67304 2.43677C8.65523 2.51409 8.62555 2.57952 8.61961 2.56167C8.61961 2.68658 8.69678 2.6271 8.7324 2.63899C8.76802 2.65089 8.80364 2.74011 8.9283 2.39514C8.9283 2.32971 8.9283 2.54383 8.87487 2.6152C9.04109 2.27023 8.92236 2.76985 8.96986 2.72226C9.01735 2.67468 9.33791 1.94905 9.49819 1.64572C9.50975 1.61496 9.52364 1.58513 9.53975 1.5565C9.64332 1.39497 9.7308 1.22365 9.80095 1.04499C9.76533 1.04499 9.65254 1.27695 9.59911 1.33643C9.54568 1.39591 9.62879 1.13421 9.65254 1.02715C9.67628 0.920087 9.44477 1.28885 9.42102 1.32454C9.39727 1.36022 9.36166 1.32454 9.31416 1.32454C9.26667 1.32454 9.2548 1.49107 9.20137 1.62787C9.14795 1.76467 9.09452 1.87768 9.11826 1.75278C9.16756 1.53039 9.24329 1.31473 9.34385 1.11042C9.54568 0.646489 9.59318 0.432369 9.40915 0.515638C9.37353 0.515638 9.13014 0.557273 9.10046 0.676228C9.05296 0.920087 9.18356 0.813027 9.21918 0.848714C9.2548 0.8844 9.21918 1.05689 9.14795 1.25316C9.07671 1.44944 9.14795 1.58029 9.08265 1.71709C9.01735 1.85389 9.08265 1.5565 9.08265 1.5446C9.08265 1.53271 9.01735 1.58624 9.00547 1.5446C8.9936 1.50297 9.08265 1.24721 9.04109 1.21748C8.99954 1.18774 8.98766 1.31264 8.97579 1.21748C8.98551 1.01934 8.98551 0.820838 8.97579 0.622698C8.97579 0.622698 8.92236 0.920087 8.91049 0.955774C8.863 1.11042 8.83926 1.09852 8.7977 1.26506C8.75615 1.4316 8.69085 1.75872 8.67304 1.8182C8.65523 1.87768 8.67304 1.58624 8.67304 1.60408L8.62555 2.10964C8.62555 2.23455 8.58399 2.32971 8.57212 2.44867C8.60318 2.20795 8.62101 1.96571 8.62555 1.72304C8.62555 1.72304 8.57212 1.44349 8.62555 1.36022C8.67897 1.27695 8.62555 1.47323 8.69085 1.36022C8.73688 1.25078 8.77265 1.13728 8.7977 1.0212C8.84291 0.815744 8.87071 0.606829 8.88081 0.396683C8.82008 0.607639 8.7725 0.822172 8.73834 1.03904C8.74303 0.839092 8.72309 0.639325 8.67897 0.444265C8.63882 0.654102 8.61697 0.867043 8.61367 1.08068C8.59467 1.21568 8.56489 1.34894 8.52463 1.47918C8.47297 1.85159 8.44916 2.22734 8.45339 2.60331Z" fill="#2B82FB"/>
<path d="M9.53976 1.55649L9.47446 1.64571C9.47446 1.64571 9.60506 1.47917 9.53976 1.55649Z" fill="#2B82FB"/>
<path d="M9.3023 2.07396C9.3023 2.19291 9.26668 2.24049 9.11827 2.57357C9.01736 2.79959 9.08859 2.72226 9.11827 2.71632C9.14796 2.71037 9.26075 2.75795 9.56944 2.24644C9.62287 2.24644 9.40916 2.49625 9.37354 2.60926C9.53767 2.42476 9.68471 2.22568 9.81283 2.01448C9.9553 1.77062 9.97311 1.58624 9.7594 1.94905C9.84251 1.83605 10.2818 0.872505 10.1512 1.00336C9.96124 1.34238 9.54569 2.07396 9.47446 2.07396L9.64661 1.75278C9.77128 1.52676 9.90781 1.31264 10.0265 1.06878C10.1987 0.70002 9.73566 1.47918 9.65848 1.70519C9.6941 1.5684 9.77721 1.24722 9.65848 1.44944C9.58976 1.6065 9.50836 1.75768 9.41509 1.90147C9.41509 1.90147 9.29637 2.03827 9.3023 2.07396Z" fill="#2B82FB"/>
<path d="M10.5074 1.24126C10.6202 1.01524 10.4718 1.15799 10.359 1.33642H10.3887L10.5074 1.24126Z" fill="#2B82FB"/>
<path d="M13.9208 36.7495C14.0514 36.922 14.087 36.8149 13.9742 36.6722L13.9208 36.7495Z" fill="#2B82FB"/>
<path d="M13.8792 36.7971V36.7673C13.8792 36.7673 13.9208 36.9398 13.8792 36.7971Z" fill="#2B82FB"/>
<path d="M13.8615 36.7673C13.8615 36.7673 13.8615 36.7673 13.8615 36.7971C13.9386 37.0766 14.1998 37.1182 13.8258 36.7019C13.8318 36.7019 13.8436 36.7257 13.8615 36.7673Z" fill="#2B82FB"/>
<path d="M9.02924 35.6254C8.57214 36.2201 9.1361 35.6551 9.02924 35.6254V35.6254Z" fill="#2B82FB"/>
<path d="M7.94879 34.983C7.94879 34.983 7.94879 34.983 7.9013 34.983C7.8754 34.9983 7.85302 35.019 7.83563 35.0436C7.81824 35.0682 7.80623 35.0962 7.80038 35.1257C7.80038 35.1257 7.96067 34.9949 7.94879 34.983Z" fill="#2B82FB"/>
<path d="M12.9235 35.322C12.8048 35.2031 12.8522 35.2804 12.9235 35.3994C12.9947 35.5183 12.8938 35.3696 12.8701 35.3458C12.8463 35.322 13.2737 35.9406 13.1491 35.78C12.994 35.5897 12.8493 35.3912 12.7157 35.1852C12.6029 35.0365 12.4308 34.8284 12.5376 35.0009C12.6445 35.1733 12.7216 35.2328 12.8641 35.4469C12.8641 35.4945 12.6148 35.1258 12.6029 35.1495C12.6427 35.2382 12.6925 35.3221 12.7513 35.3994C12.7513 35.435 12.5317 35.096 12.5079 35.0901C12.4842 35.0841 12.5079 35.0901 12.4426 35.0306C12.3773 34.9711 12.4426 35.1198 12.5495 35.2923C12.6563 35.4648 12.6742 35.5302 12.6623 35.554L12.407 35.0782C12.2883 34.8581 12.407 35.1555 12.4486 35.215C12.4901 35.2745 12.4486 35.2507 12.4189 35.2745C12.3892 35.2982 12.4723 35.4767 12.4783 35.4826C12.4842 35.4886 12.0805 34.6261 12.3002 35.2328C12.3002 35.2982 12.3714 35.4172 12.3002 35.2328C12.2289 35.0901 12.2467 35.1793 12.2645 35.2923C12.2645 35.4945 12.2349 35.2923 12.1458 35.1258C12.0568 34.9592 12.2052 35.4767 12.2705 35.7205C12.2408 35.6135 12.2171 35.5778 12.1696 35.3994C12.1529 35.3408 12.1331 35.2833 12.1102 35.2269C12.0449 35.102 12.0271 35.2269 11.9915 35.1674C11.9559 35.1079 11.8965 35.0187 11.8846 35.102C11.8985 35.2895 11.9223 35.4761 11.9559 35.6611C11.9416 35.5986 11.9238 35.5371 11.9024 35.4767L11.849 35.2923C11.849 35.209 11.8193 35.2923 11.8134 35.2923C11.8074 35.2923 11.8134 35.4053 11.8134 35.4113C11.8134 35.4172 11.76 35.322 11.7362 35.3637C11.7125 35.4053 11.7362 35.8454 11.6887 35.7086C11.6412 35.5718 11.6115 35.1139 11.5759 35.2804C11.5403 35.4469 11.5047 35.8752 11.5225 35.3577C11.5175 35.427 11.5175 35.4966 11.5225 35.5659C11.5225 34.8522 11.4513 35.1377 11.38 35.1733C11.3088 35.209 11.2732 35.1436 11.2316 35.3637C11.2316 35.3637 11.2316 35.3101 11.2316 35.2863C11.2316 35.2626 11.1782 35.2863 11.1485 35.2863C11.1188 35.2863 11.0951 35.1793 11.0476 35.1912C11.0001 35.2031 11.012 35.1912 10.9585 35.3399C10.9051 35.4886 10.8932 35.548 10.8754 35.548C10.8576 35.548 10.8754 35.4886 10.8754 35.3577C10.8754 35.2269 10.8161 35.4053 10.8161 35.3577C10.8161 35.3101 10.8932 35.0306 10.8161 35.2745C10.7904 35.3732 10.7461 35.4661 10.6855 35.548L10.8161 35.1912C10.8458 35.0782 10.6617 35.3875 10.632 35.4113C10.6024 35.435 10.632 35.3339 10.632 35.2863C10.632 35.2388 10.6736 35.0128 10.5489 35.2863L10.3352 35.7146C10.3768 35.5837 10.4599 35.3399 10.4896 35.2388C10.5193 35.1377 10.2818 35.6551 10.2521 35.7086C10.3301 35.4634 10.4273 35.2247 10.543 34.9949C10.6024 34.8165 10.4421 35.0782 10.4183 35.0782C10.3946 35.0782 10.4183 34.9354 10.3293 35.0782L10.264 35.2031C10.2212 35.2363 10.1866 35.2791 10.1631 35.328L9.98498 35.6373C9.98498 35.6373 10.3293 34.9592 10.359 34.8641C10.3887 34.7689 10.2818 34.8284 10.2402 34.8284C10.1987 34.8284 10.2402 34.6083 9.97311 34.9711C10.1393 34.7094 9.97311 34.8224 9.93749 34.7927C9.90187 34.7629 10.0265 34.5964 9.93749 34.6856C9.84044 34.8074 9.75311 34.9367 9.67629 35.0722C9.41509 35.3756 9.9078 34.5964 9.85438 34.6499C9.80095 34.7035 9.26074 35.3696 9.31417 35.2863C9.36759 35.2031 10.0503 34.3942 9.80689 34.5964C9.67035 34.7035 9.74159 34.5548 9.53975 34.7392C9.45664 34.7927 9.26668 34.9116 9.33198 34.8105C9.52194 34.6083 9.65848 34.3823 9.41509 34.6261C9.9553 34.0849 9.60505 34.2812 9.11827 34.7392L9.49226 34.3585C9.64067 34.2039 9.56943 34.2395 9.53975 34.2276C9.51007 34.2157 9.5813 34.0849 9.35572 34.2812C9.46258 34.1682 9.45664 34.1384 9.4329 34.1265C9.40915 34.1146 9.28449 34.186 8.98767 34.4061C8.95205 34.4061 9.3201 34.1206 9.39134 34.0433C9.31408 34.1116 9.22294 34.1623 9.1242 34.192C9.57537 33.8827 9.42102 33.9243 9.37353 33.9005C9.12586 34.0134 8.8859 34.1425 8.65523 34.2871L8.13877 34.6083C8.00223 34.6856 8.13877 34.5667 8.21 34.525C8.42371 34.3882 8.66117 34.2455 8.87488 34.1206C8.84519 34.1206 9.26074 33.8886 9.21919 33.9065C9.17763 33.9243 9.13608 33.9362 9.13608 33.9065L9.24293 33.8291C9.24293 33.8291 9.24293 33.7875 9.15389 33.8291L8.28717 34.3228C8.36435 34.2336 8.95799 33.8232 8.45933 34.079C8.31686 34.2039 8.02597 34.3466 7.86569 34.4775C7.70541 34.6083 8.26937 34.3466 8.07347 34.4775C7.92342 34.563 7.78049 34.6604 7.64605 34.7689C7.47983 34.876 7.69947 34.8046 7.71728 34.8165C7.95325 34.7215 8.17657 34.5977 8.38216 34.4477C8.49356 34.3697 8.61297 34.3039 8.73834 34.2514C8.73834 34.2514 8.82739 34.2514 8.73834 34.3288C8.63049 34.3865 8.5195 34.4381 8.4059 34.4834C8.25162 34.5646 8.10288 34.656 7.96067 34.757C8.24562 34.5667 8.16845 34.6856 8.34654 34.5964C8.38216 34.5964 8.28124 34.6737 8.21 34.757C8.13877 34.8403 8.21 34.8224 8.21 34.8403C8.21 34.8581 8.09721 34.9414 8.0141 35.0187C7.93099 35.096 7.94286 35.1555 7.93099 35.2031C7.91912 35.2507 7.84788 35.4529 8.00817 35.3042C8.2753 35.0663 8.38216 35.0009 8.36435 35.096C8.34654 35.1912 8.02597 35.441 8.25156 35.2923C8.47714 35.1436 8.12689 35.5124 8.29905 35.3756C8.35248 35.3339 8.52463 35.1793 8.68491 35.0306L8.9936 34.7392C8.9936 34.7748 8.65523 35.0841 8.57212 35.1793C8.48901 35.2745 8.50088 35.3339 8.32873 35.5005C8.32873 35.5005 8.22781 35.5897 8.22781 35.5956C8.22781 35.6016 8.32873 35.5183 8.35247 35.5124C8.48308 35.3815 8.51276 35.4231 8.52463 35.441C8.5365 35.4588 8.7977 35.096 8.77989 35.1733C8.76208 35.2507 8.35841 35.6373 8.30498 35.7681C8.25156 35.899 8.47714 35.7205 8.63742 35.548C8.7977 35.3756 8.75615 35.4291 8.7977 35.441C8.83926 35.4529 8.76209 35.5659 8.83926 35.441C8.91643 35.3161 9.04703 35.1733 8.98173 35.3339C8.91643 35.4945 8.76208 35.5183 8.56025 35.7443C8.65523 35.7443 8.42371 35.9763 8.62555 35.8276C8.82738 35.6789 8.70272 35.9347 8.93424 35.6254C8.80958 35.7681 8.7977 35.8395 8.93424 35.7443C9.07078 35.6492 9.14795 35.5005 9.26074 35.3756C9.48039 35.1377 9.17763 35.554 9.11827 35.6432C9.0589 35.7324 8.74428 36.1547 8.84519 36.0952C8.94611 36.0358 9.11233 35.899 8.84519 36.2201C9.01141 36.0001 9.47445 35.3458 9.34979 35.6254C9.29042 35.786 8.89862 36.3094 9.09452 36.1369C9.13014 36.1369 9.35572 35.8454 9.32604 35.9109C9.29636 35.9763 9.16576 36.1845 9.13014 36.2737C9.09452 36.3629 9.22512 36.1964 9.24887 36.2023C9.27261 36.2083 9.41509 35.9584 9.48039 35.8811C9.54569 35.8038 9.55756 35.8811 9.6941 35.7086C9.72378 35.673 9.94342 35.3756 9.79501 35.6254C9.73565 35.786 9.72378 35.893 9.76533 35.893C9.80689 35.893 9.89 35.7681 9.94342 35.7205C9.99685 35.673 9.60505 36.3153 9.56943 36.47C9.53381 36.6246 9.76533 36.1726 9.79501 36.125C9.8247 36.0774 9.93155 35.9406 9.86625 36.0715C9.89593 36.006 10.0918 35.5778 10.0978 35.5897C9.97575 35.9254 9.833 36.2531 9.67035 36.5711C9.71784 36.5711 9.86625 36.1904 9.92561 36.1964C9.70597 36.6246 9.92561 36.3094 9.92561 36.4224C9.92561 36.5354 9.80095 36.6841 9.83063 36.7138C9.86031 36.7436 9.87812 36.6781 9.91374 36.6484C9.94936 36.6187 9.96123 36.7198 9.99092 36.7198H10.1393C10.1765 36.549 10.2385 36.3847 10.3234 36.232C10.4005 36.1071 10.2759 36.4997 10.2581 36.583C10.1868 36.7971 10.2106 36.922 10.2581 36.8268C10.3111 36.7004 10.3413 36.5654 10.3471 36.4283C10.3471 36.3153 10.5489 36.1547 10.4599 36.4283C10.2937 36.9874 10.6855 36.012 10.6973 36.006C10.6407 36.1554 10.6028 36.3112 10.5846 36.47C10.5846 36.47 10.7567 36.3034 10.6617 36.5413C10.6617 36.5711 10.7983 36.3332 10.7567 36.5413C10.7567 36.6305 10.7211 36.922 10.7567 36.7911C10.8033 36.5742 10.8252 36.3528 10.822 36.1309C10.8466 36.0556 10.8763 35.9821 10.9111 35.9109C10.9112 36.0291 10.8973 36.1469 10.8695 36.2618L10.7983 36.803L10.9051 36.5175C11.0001 36.1547 10.9526 36.4105 10.9467 36.6008C10.9467 37.0766 11.1782 36.2915 11.1307 36.8268C11.1307 36.8922 11.2376 36.351 11.2257 36.5592C11.2257 36.6008 11.1782 37.154 11.2257 36.9398C11.2554 36.8209 11.2613 36.4937 11.3029 36.4819C11.3241 36.5634 11.3341 36.6474 11.3325 36.7317C11.3325 36.7317 11.3029 36.5116 11.291 36.7317C11.2791 36.9517 11.3325 36.9517 11.3563 36.9458C11.38 36.9398 11.4216 36.9458 11.4216 36.8268C11.4344 36.6775 11.4244 36.5271 11.3919 36.3807C11.3951 36.2672 11.405 36.154 11.4216 36.0417C11.4216 35.9228 11.4216 36.1488 11.4631 36.2201C11.4631 36.4164 11.5047 36.6722 11.5047 36.9577C11.4881 36.8652 11.4881 36.7706 11.5047 36.6781C11.5047 36.6781 11.5047 36.9458 11.5403 37.0112C11.5403 37.1837 11.6294 37.0112 11.659 36.9101C11.7079 36.7805 11.736 36.644 11.7421 36.5056C11.7421 36.4402 11.7421 36.1369 11.7718 36.2618C11.8015 36.3867 11.7718 36.4819 11.7718 36.6484C11.7718 36.8149 11.7718 36.9755 11.7718 36.9755C11.7718 36.9755 11.7718 36.5473 11.7718 36.5413C11.7769 36.6423 11.7949 36.7423 11.8253 36.8387C11.8253 36.8863 11.9024 36.8922 11.8787 36.7019C11.9311 36.5969 11.9556 36.4802 11.9499 36.3629C12.0033 36.2083 12.0212 36.5354 12.1161 36.7436C12.2111 36.9517 12.1161 36.4164 12.0568 36.4521C12.1066 36.2274 12.0963 35.9935 12.0271 35.7741C12.0746 35.9882 12.0924 36.1547 12.1518 36.3688L12.2467 36.7019C12.1696 36.3332 12.1992 36.2856 12.2467 36.2915C12.2942 36.2975 12.3951 36.5889 12.4961 36.7614C12.4308 36.5413 12.5673 36.5354 12.5792 36.4937C12.591 36.4521 12.4842 36.1428 12.5198 36.1488C12.5554 36.1547 13.06 36.8982 12.7929 36.3213C12.7929 36.3213 13.066 36.6722 12.9828 36.47C12.8997 36.2677 12.8404 36.1369 12.7632 35.9406C12.876 36.1666 12.9769 36.3748 13.0719 36.6008C12.9888 36.3569 12.8997 36.119 12.7988 35.8871C12.7988 35.9466 13.0897 36.4819 13.0897 36.4521C12.9853 36.1614 12.8436 35.8855 12.6682 35.6313C12.818 35.8292 12.9529 36.038 13.0719 36.2558C13.2262 36.4937 13.0719 36.2201 13.1906 36.3153C13.3093 36.4105 13.3331 36.5354 13.3153 36.4521C13.2975 36.3688 13.2025 36.2083 13.2559 36.232C13.2991 36.2404 13.341 36.2544 13.3806 36.2737C13.4162 36.2737 13.7486 36.5711 13.6952 36.4581L13.4221 36.1012C13.2084 35.8098 13.1609 35.7503 13.2619 35.7919C13.3628 35.8335 13.1669 35.6432 13.1253 35.5778C13.25 35.6373 13.0363 35.4113 12.9235 35.322Z" fill="#2B82FB"/>
<path d="M7.74699 34.1384C7.77667 34.0968 7.78855 34.0433 7.58077 34.1741C7.373 34.305 7.47392 34.3169 7.51547 34.3347L7.72325 34.1682C7.72325 34.1682 7.75293 34.1384 7.74699 34.1384Z" fill="#2B82FB"/>
<path d="M9.0411 33.6329C9.23107 33.4842 8.87489 33.6804 9.0411 33.5555C9.20732 33.4306 8.75616 33.6091 8.66118 33.5972C8.91644 33.4663 8.94019 33.4306 8.83333 33.4485C8.72648 33.4663 8.54245 33.5615 8.3881 33.615C8.68492 33.508 9.22513 33.1154 8.66118 33.4425C8.47121 33.5674 8.47121 33.4901 8.61962 33.4068C8.76803 33.3236 8.98768 33.2165 8.94612 33.1868C9.1064 33.0559 8.35248 33.4425 8.30499 33.4782C8.2575 33.5139 7.38486 33.8529 7.32549 33.9303C7.26613 34.0076 7.59263 33.847 7.45609 33.9303C7.31956 34.0135 7.10585 34.1503 7.26613 34.1027C7.42641 34.0552 7.64012 33.8946 7.75885 33.841L7.97849 33.7518C7.77666 33.8529 7.47984 34.0254 7.71136 33.9421C7.83008 33.9005 8.23969 33.7102 8.34655 33.6567L7.59263 34.0373C7.62231 34.0373 7.91319 33.8827 7.98443 33.8767C8.05567 33.8708 7.98443 33.9481 7.98443 33.9897C7.98443 34.0314 8.08535 34.0373 7.91913 34.1741C7.83881 34.2312 7.76336 34.2949 7.69355 34.3644C7.82745 34.2719 7.96616 34.1865 8.10909 34.1087C8.14471 34.1384 7.87758 34.2931 7.70542 34.3942C7.81252 34.3269 7.93136 34.2805 8.05567 34.2574C8.13878 34.2574 8.17439 34.2217 8.41185 34.073C8.6493 33.9243 8.88082 33.7518 9.0411 33.6329Z" fill="#2B82FB"/>
<path d="M8.95206 33.1868C8.98768 33.1868 9.05298 33.1035 8.95206 33.1868V33.1868Z" fill="#2B82FB"/>
<path d="M8.76803 33.1987C9.02329 33.0381 8.35842 33.3414 8.21594 33.4009C8.44662 33.3067 8.66902 33.1933 8.88082 33.0619C8.73587 33.1312 8.58484 33.1869 8.42965 33.2284C8.39403 33.2284 8.34654 33.2284 8.37622 33.1689C8.44518 33.1356 8.51664 33.1078 8.58993 33.0857C8.82739 32.9786 8.75615 32.9608 8.5187 33.0857C8.70272 32.9905 8.1922 33.163 8.37029 33.0857C8.50719 33.0213 8.65044 32.9714 8.79771 32.937C8.5512 32.976 8.31011 33.0438 8.07941 33.1392C8.29905 33.0381 8.47714 32.9667 8.72053 32.8775C8.43884 32.9755 8.1487 33.0472 7.85382 33.0916C8.06753 33.0202 8.584 32.824 8.44746 32.8299C8.31092 32.8359 8.04379 33.0381 7.85382 33.05C7.66386 33.0619 8.3881 32.8418 8.32873 32.824C8.26937 32.8061 7.96068 32.9251 8.16251 32.824L8.36435 32.7466C8.25788 32.7704 8.15284 32.8002 8.04972 32.8359C8.25582 32.7763 8.45486 32.6945 8.64336 32.592C8.72053 32.5504 8.57806 32.592 8.4534 32.6277C8.61962 32.5682 8.73241 32.5087 8.73241 32.4849C8.73241 32.4611 8.54838 32.4849 8.4534 32.5147C8.38485 32.5288 8.31417 32.5288 8.24562 32.5147C8.36854 32.4624 8.49563 32.4206 8.62555 32.3898C8.51972 32.3906 8.41427 32.4026 8.31092 32.4255L8.19813 32.4552C7.74697 32.5682 7.54513 32.6634 7.09397 32.8002C6.6428 32.937 6.90994 32.9191 6.904 32.9727C6.89807 33.0262 6.71998 33.163 6.95743 33.1213C7.16611 33.0846 7.36692 33.0122 7.55107 32.9072C7.80531 32.866 8.05702 32.8104 8.30499 32.7407L7.82414 32.8834C7.74103 32.8834 7.61043 32.9786 7.61043 32.9786C7.42555 33.017 7.24468 33.0728 7.07022 33.1451C7.0999 33.1808 6.77934 33.4723 7.33142 33.276C7.27206 33.276 7.33142 33.3652 7.33142 33.3712C7.33142 33.3771 7.12365 33.4961 7.0999 33.5436C7.07616 33.5912 7.0999 33.6448 7.2305 33.6269C7.52732 33.5853 7.07022 33.7399 7.11178 33.7875C7.30115 33.6821 7.49988 33.5944 7.70541 33.5258C7.81227 33.4901 8.22781 33.3652 8.04972 33.4663C7.7576 33.6108 7.45375 33.7302 7.14146 33.8232C7.14146 33.8232 7.14146 33.9838 7.35517 33.9005C7.56888 33.8172 8.03785 33.5734 8.16251 33.5555C8.38117 33.4679 8.58532 33.3476 8.76803 33.1987Z" fill="#2B82FB"/>
<path d="M7.14145 32.6336C7.02272 32.6336 6.86244 32.6991 6.88618 32.7288C6.90993 32.7585 7.16519 32.6574 7.14145 32.6336Z" fill="#2B82FB"/>
<path d="M8.14471 32.2292C7.69355 32.3481 7.94881 32.2173 8.14471 32.2292V32.2292Z" fill="#2B82FB"/>
<path d="M7.4383 32.4076C7.7648 32.3065 8.15066 32.1757 8.50091 32.0864C8.33187 32.073 8.16179 32.085 7.99632 32.1221C7.71731 32.1816 8.026 32.1816 7.95476 32.1994C7.78854 32.1994 7.65794 32.1994 7.8301 32.1459C8.00225 32.0924 8.27532 32.0389 8.38218 31.9794C8.73243 31.7831 7.84197 32.0983 7.78854 32.0864C7.73511 32.0745 8.38218 31.8842 8.44748 31.8426C8.51278 31.8009 8.55433 31.7534 8.1566 31.8426C8.1566 31.8069 8.39405 31.7534 8.47716 31.6939C8.56027 31.6344 8.51872 31.6106 8.2219 31.6939C8.73243 31.5868 8.13879 31.5571 8.29313 31.4738H8.32875C8.16253 31.4738 7.68762 31.6166 7.38487 31.6998C7.28422 31.7188 7.18644 31.7508 7.09399 31.795C7.03462 31.795 6.56565 31.914 6.77936 31.8961C6.99307 31.8783 7.01088 31.8426 7.02869 31.8664C7.03508 31.8841 7.04775 31.899 7.0643 31.908C7.24133 31.8975 7.41769 31.8776 7.59264 31.8485C7.98444 31.8485 6.89215 31.9913 6.90996 31.9853C6.83872 31.9853 7.30176 31.9853 7.12367 32.021C6.94558 32.0567 6.6072 32.1578 6.69031 32.1935C6.82678 32.2273 6.96939 32.2273 7.10586 32.1935C7.10586 32.1935 6.95745 32.1638 7.02869 32.1519C7.2602 32.1102 7.30176 32.1994 7.23052 32.2411C7.17833 32.2648 7.12163 32.277 7.0643 32.2768C6.94322 32.2828 6.82346 32.3048 6.70812 32.3422C6.8684 32.3422 7.09992 32.2946 7.30176 32.2708C7.21271 32.2708 6.6072 32.4314 6.70812 32.4314C6.80904 32.4314 7.0643 32.366 7.14148 32.3779C7.08947 32.403 7.03594 32.4249 6.9812 32.4433C6.82685 32.5325 7.6995 32.2946 6.9812 32.5147C6.69031 32.6277 6.60127 32.6872 6.91589 32.6455C7.23052 32.6039 6.50629 32.818 6.80904 32.7645C7.1118 32.711 7.69356 32.4909 8.03193 32.4076C8.83928 32.1757 7.69356 32.3541 7.4383 32.4076Z" fill="#2B82FB"/>
<path d="M8.31687 31.4084H8.28125C8.28125 31.4084 8.42372 31.3906 8.31687 31.4084Z" fill="#2B82FB"/>
<path d="M6.82091 30.5281C6.67811 30.4965 6.5291 30.509 6.39349 30.5638C6.4113 30.6233 6.85059 30.5698 6.82091 30.5281Z" fill="#2B82FB"/>
<path d="M6.50626 30.195C6.40534 30.2724 6.68435 30.2605 6.64873 30.195H6.50626Z" fill="#2B82FB"/>
<path d="M7.21269 31.6225C7.2958 31.6225 7.47389 31.5868 7.52138 31.569C7.71135 31.5036 7.23644 31.569 7.74103 31.4857C7.91319 31.45 8.28718 31.337 8.07347 31.3549L7.53326 31.4143C7.73508 31.3912 7.93401 31.3473 8.12689 31.2835C8.12689 31.2835 7.87163 31.2359 8.21594 31.1764C8.0461 31.2238 7.86873 31.238 7.69354 31.2181C7.89492 31.1954 8.09369 31.1535 8.28718 31.0932H7.80633C7.43234 31.0932 8.18032 31.0158 8.21 30.9802C8.12994 30.9618 8.04856 30.9499 7.96661 30.9445C7.82307 30.9484 7.68011 30.9644 7.53919 30.992C7.53919 30.9564 7.97255 30.9207 8.04972 30.9028C8.1269 30.885 8.08534 30.8434 8.19813 30.8196C8.31092 30.7958 8.35248 30.7839 8.19813 30.772C8.04379 30.7601 8.10909 30.7363 8.19813 30.7066C8.28718 30.6768 8.584 30.6114 8.39403 30.6292C8.31092 30.6292 7.99036 30.6947 7.95474 30.6828C7.91912 30.6709 8.09721 30.6292 8.21 30.6114C8.6671 30.5519 8.05566 30.5816 7.98442 30.6114C7.98442 30.6114 8.31686 30.546 8.29311 30.5162C8.26937 30.4865 8.10909 30.5162 7.99036 30.5162C7.87163 30.5162 8.33467 30.3973 8.34654 30.3913C8.35841 30.3854 8.16251 30.3913 8.09721 30.3913C7.93388 30.3531 7.76615 30.3371 7.59856 30.3437C7.4917 30.3437 7.27799 30.3437 7.41453 30.3021C7.59109 30.2714 7.76557 30.2297 7.93693 30.1772C7.93693 30.1356 8.12096 30.1177 8.24562 30.082C8.56619 29.9928 7.65198 30.082 8.24562 29.9393C7.9488 29.975 7.69354 29.9869 7.78852 29.9393C7.8835 29.8917 8.31686 29.8263 8.30499 29.8025C8.01901 29.8329 7.7354 29.8826 7.45608 29.9512C7.15462 29.986 6.85127 30.0019 6.54782 29.9988C6.27475 29.9988 6.39347 30.1177 6.40535 30.1296C6.41722 30.1415 6.92775 30.0285 7.0999 30.0285C6.98327 30.021 6.86628 30.021 6.74966 30.0285C6.91493 30.005 7.08143 29.9911 7.24831 29.9869C7.45608 29.9869 7.19488 30.0404 7.0346 30.0582C6.87432 30.0761 6.48846 30.1713 6.92775 30.1296C7.07616 30.1296 7.52138 30.0642 7.46796 30.1296C7.20876 30.1774 6.94718 30.2112 6.68436 30.2307C6.47065 30.2605 6.5775 30.3081 6.58937 30.3259C6.60125 30.3437 6.43503 30.4805 7.08209 30.3973C6.87432 30.4567 7.20676 30.3973 7.2305 30.4567C7.25425 30.5162 6.92181 30.5043 6.93368 30.5281C6.94556 30.5519 7.73509 30.4389 7.4264 30.5281C7.2599 30.5796 7.08899 30.6154 6.91587 30.6352C6.7734 30.6352 7.05241 30.5757 7.08803 30.5579C7.12365 30.54 7.02273 30.5579 6.88026 30.5579C6.73778 30.5579 6.71997 30.5579 6.71997 30.5579C6.44096 30.5935 6.35192 30.6947 6.62499 30.659C6.62499 30.6947 6.42909 30.7422 6.49439 30.7779C6.65726 30.8252 6.83017 30.8252 6.99305 30.7779C7.12365 30.7779 7.27206 30.7066 7.37891 30.7006C7.48577 30.6947 7.91912 30.7006 7.78258 30.7006C7.55107 30.7006 7.35517 30.766 7.14146 30.8136C6.92775 30.8612 6.79121 30.885 6.78527 30.9266C6.77934 30.9683 6.52407 31.0099 6.50033 31.0456C6.47658 31.0813 8.55431 30.766 6.8387 31.0456C6.54188 31.0872 6.45284 31.1407 6.6428 31.1467C6.73778 31.1467 7.37298 31.0872 7.37298 31.0872L6.93962 31.1586C6.79594 31.1705 6.65433 31.2004 6.51814 31.2478C6.84433 31.1763 7.17597 31.1326 7.50951 31.117C7.25478 31.1917 6.99484 31.2474 6.73185 31.2835C6.66655 31.2835 6.73185 31.3251 6.73185 31.343C6.73185 31.3608 6.5775 31.3787 6.54188 31.4024C6.50626 31.4262 7.05835 31.4441 7.05835 31.4441C6.92803 31.4543 6.79889 31.4762 6.67248 31.5095C6.62499 31.5095 6.67248 31.5095 6.75559 31.5095C6.8387 31.5095 7.34923 31.4619 7.34923 31.5095C7.34923 31.5571 6.8387 31.6285 6.7081 31.676C6.5775 31.7236 6.81496 31.7177 6.98711 31.676C7.15927 31.6344 7.02273 31.6641 7.21269 31.6225Z" fill="#2B82FB"/>
<path d="M7.3908 29.9274C7.61044 29.9274 7.94288 29.8322 7.79447 29.8144H7.75292L7.09991 29.8917C7.20463 29.8835 7.30983 29.8835 7.41454 29.8917C7.26613 29.8679 6.81497 29.9928 7.3908 29.9274Z" fill="#2B82FB"/>
<path d="M6.68435 29.7728C6.5953 29.7728 6.25693 29.7728 6.26286 29.8203C6.40512 29.8327 6.5484 29.8165 6.68435 29.7728Z" fill="#2B82FB"/>
<path d="M8.52463 29.6835H8.2753C8.23375 29.6835 8.38216 29.6241 8.3406 29.6003C8.2662 29.5662 8.18491 29.5499 8.10315 29.5527C8.01219 29.5479 7.92104 29.5479 7.83008 29.5527C7.93644 29.5361 8.04156 29.5122 8.1447 29.4813C7.99629 29.4813 7.61637 29.517 7.44421 29.5348L6.46471 29.6419C6.46471 29.6419 7.17114 29.6419 7.11177 29.6419C6.86268 29.6612 6.61491 29.6949 6.36973 29.743C6.96337 29.6657 6.59531 29.743 6.85651 29.743C7.11771 29.743 7.56888 29.63 7.53919 29.7133C7.50951 29.7965 7.18301 29.7549 7.0346 29.7549C6.79011 29.7823 6.54801 29.828 6.31036 29.8917C6.31036 29.8917 7.14146 29.8441 7.27799 29.8322C7.58019 29.7839 7.88687 29.7699 8.19219 29.7906C8.16251 29.749 8.21594 29.7311 8.52463 29.6835Z" fill="#2B82FB"/>
<path d="M8.38217 29.3683C8.38217 29.3326 8.35249 29.291 8.18033 29.285C8.00818 29.2791 7.72323 29.285 7.5867 29.285C7.45016 29.285 8.26938 29.1542 8.31094 29.1304C8.35249 29.1066 8.31094 29.0828 8.25157 29.0709C8.19221 29.059 8.16846 29.0055 8.18033 28.9639C8.19221 28.9222 8.39404 28.8568 8.00818 28.8508C7.96069 28.8508 6.8862 28.9579 7.12366 28.8865L7.53921 28.8568C7.65032 28.8604 7.76154 28.8544 7.87164 28.839C8.11503 28.7616 8.13878 28.6843 8.10316 28.6248C8.06754 28.5654 8.10316 28.5416 7.96663 28.5416C7.83009 28.5416 7.83603 28.5951 7.8479 28.5951C7.85977 28.5951 7.43829 28.6308 7.39673 28.6308L6.63688 28.72C6.42317 28.7497 6.63688 28.7616 6.50034 28.7854C6.28663 28.8211 6.20946 28.833 6.28069 28.8627C6.35193 28.8925 6.45285 28.9222 6.87433 28.8627C7.00493 28.8627 7.29581 28.8033 7.17709 28.7914C7.05836 28.7795 7.45016 28.7497 7.47391 28.7497C7.49765 28.7497 7.96069 28.7497 7.85383 28.7497C7.74698 28.7497 7.55108 28.7497 7.49765 28.7497C7.32354 28.7667 7.15092 28.7965 6.98119 28.839C6.82444 28.9104 6.65472 28.9489 6.48253 28.952C6.48253 28.952 6.60126 28.9044 6.48253 28.9044C6.3638 28.9044 6.18571 29.0709 6.69624 28.9758C6.89808 28.9758 6.80903 28.9758 6.89214 28.9758C6.97525 28.9758 6.98119 28.9758 7.14741 28.9758C7.08804 28.9758 6.6725 29.0947 6.625 29.1066C6.43504 29.1601 6.52409 29.1958 6.54783 29.2375C6.31038 29.3505 7.09398 29.1899 7.36111 29.1661C7.43235 29.1661 7.42048 29.1661 7.41454 29.1661C7.3247 29.1857 7.23334 29.1977 7.14147 29.2018C6.92182 29.2018 6.61313 29.2791 6.8031 29.3029C6.99306 29.3267 7.30769 29.3029 7.50359 29.3029C7.50359 29.3445 7.80634 29.3029 7.88352 29.3386C7.96069 29.3743 7.24832 29.3386 7.18896 29.3743C6.98916 29.3859 6.79064 29.4138 6.59532 29.4575C6.44691 29.517 6.79716 29.5051 7.0168 29.4575C7.13553 29.4575 7.2602 29.404 7.38486 29.3861C7.50952 29.3683 7.49172 29.3861 7.44422 29.3861C7.75515 29.4402 8.07352 29.4341 8.38217 29.3683Z" fill="#2B82FB"/>
<path d="M7.62233 28.4107C7.62233 28.381 7.90728 28.4107 7.99632 28.3572C8.08537 28.3037 7.90727 28.3155 7.78855 28.3215C7.66982 28.3274 6.60127 28.4167 6.80905 28.4523C6.61908 28.4523 6.47661 28.488 6.50629 28.4523C6.22134 28.494 6.58346 28.5594 6.63689 28.5654C6.97171 28.6116 7.31126 28.6116 7.64607 28.5654C8.47717 28.4286 7.55703 28.488 7.62233 28.4107Z" fill="#2B82FB"/>
<path d="M7.9607 27.5959C8.08536 27.5959 8.09723 27.5959 8.08536 27.5483C7.97851 27.5542 7.92508 27.584 7.9607 27.5959Z" fill="#2B82FB"/>
<path d="M7.0643 27.0903H7.01087H6.8684C6.70218 27.0903 6.57158 27.126 6.59533 27.1617C6.79643 27.1437 6.99528 27.1058 7.18896 27.0487L7.0643 27.0903Z" fill="#2B82FB"/>
<path d="M6.17382 27.2687C6.17382 27.2687 6.28661 27.2033 6.2688 27.1795C5.9423 27.2093 6.16195 27.2568 6.17382 27.2687Z" fill="#2B82FB"/>
<path d="M6.63688 28.4167C6.63688 28.375 7.13554 28.3036 7.0643 28.2799C6.99307 28.2561 6.83872 28.2799 6.75561 28.2799C6.6725 28.2799 6.62501 28.2442 6.72593 28.2442C6.59262 28.2455 6.45962 28.2575 6.32819 28.2799C6.61314 28.2382 6.8031 28.2025 7.0643 28.149C6.87434 28.149 6.33413 28.1906 6.47066 28.149C6.68743 28.0782 6.91351 28.0401 7.14148 28.036C7.14148 28.036 7.28988 28.036 7.27801 28.036C7.26614 28.036 7.23052 28.036 7.18303 28.036C7.02894 28.0233 6.87408 28.0233 6.71999 28.036C6.48847 28.0776 6.22134 28.0955 6.26883 28.036C6.31632 27.9765 6.78529 27.9408 6.90996 27.8933C7.03462 27.8457 6.8031 27.8635 6.69031 27.8635C6.56413 27.903 6.43514 27.9328 6.30445 27.9527C5.97201 27.9884 6.02544 27.9527 6.30445 27.8933C6.19759 27.8933 6.03137 27.8933 6.07886 27.8933C6.22096 27.8501 6.36572 27.8163 6.51222 27.7921L7.77667 27.5661C7.47985 27.6197 7.1296 27.6137 6.88027 27.6672C6.74388 27.7107 6.60515 27.7465 6.46473 27.7743C6.29851 27.7743 6.54784 27.7089 6.57752 27.7029C6.77342 27.6434 7.36112 27.5364 7.23052 27.5066C6.99407 27.5476 6.76166 27.6093 6.53597 27.691C6.06699 27.8338 6.24508 27.691 6.22727 27.691C6.20946 27.691 5.97795 27.691 6.10261 27.6197C6.22727 27.5483 6.46473 27.5423 6.55971 27.5185C6.80619 27.4736 7.04846 27.4079 7.28395 27.3223C7.28395 27.3223 6.51222 27.4888 6.52409 27.4769C6.53596 27.465 6.70218 27.4234 6.58939 27.4293C6.4766 27.4353 6.2807 27.5007 6.16197 27.5245C5.70487 27.5899 6.16197 27.4591 6.39943 27.4115C6.19166 27.4591 5.80579 27.5185 6.16197 27.4115C6.51816 27.3044 7.14741 27.1557 7.48578 27.0962H7.2602C7.08211 27.0962 6.89808 27.1319 6.66657 27.1617C6.17978 27.3104 6.82685 27.0487 6.82685 27.0487C6.82685 27.0487 6.23321 27.2271 6.42911 27.126C6.49441 27.0903 6.20353 27.126 6.18572 27.126C6.16791 27.126 6.47066 27.0249 6.45879 27.007C6.44692 26.9892 5.52085 27.2449 5.8236 27.1141C6.00169 27.0427 6.59533 26.894 6.88027 26.8108L6.44098 26.8762C6.29078 26.8932 6.14198 26.9211 5.99576 26.9595C5.99576 26.9595 6.04325 26.9595 5.99576 27.007C5.81766 27.0844 5.82954 26.9476 5.82954 26.9476C5.82954 26.9476 5.71081 26.8881 5.97795 26.8286C6.82685 26.6383 5.63957 26.8286 5.82954 26.7096C6.0195 26.5907 6.42317 26.5193 6.60127 26.4717C6.91972 26.3609 7.24757 26.2793 7.58077 26.2279C7.75886 26.2279 7.61639 26.2636 7.33738 26.3468C7.14741 26.4004 6.99307 26.5253 6.92183 26.5312C7.12367 26.5312 7.43829 26.4242 7.68762 26.3647C7.55702 26.4063 6.50035 26.7096 6.8031 26.6442C7.10586 26.5788 7.45017 26.4896 7.62826 26.4836C7.80635 26.4777 7.99038 26.5372 7.59264 26.6264C7.92508 26.5372 7.75292 26.6264 7.59264 26.6977C7.54515 26.6977 7.11179 26.8702 7.39674 26.8108C7.68169 26.7513 7.91914 26.7037 7.7826 26.8108C7.64607 26.9178 7.83603 26.8108 7.86571 26.8881C7.53328 27.0249 7.94289 27.0963 7.9607 27.1736C7.9785 27.2509 7.9607 27.239 7.84197 27.2806C7.72324 27.3223 7.46798 27.3461 7.46798 27.3461C7.46798 27.3461 7.81229 27.3461 7.88352 27.3461C7.95476 27.3461 7.88352 27.4174 7.77073 27.465C7.33144 27.584 7.77073 27.465 7.90133 27.465C8.03193 27.465 7.9785 27.465 7.96663 27.5066C7.89341 27.5297 7.81765 27.5436 7.74105 27.5483C7.70543 27.5483 8.06161 27.5483 8.0438 27.5483C7.85172 27.6381 7.6533 27.7136 7.45017 27.7743C7.17116 27.8754 7.83603 27.7386 7.99631 27.7089C8.31688 27.6613 7.85978 27.81 8.08536 27.7862C7.61639 27.8576 8.1744 27.8992 8.01412 27.9289C7.81332 27.9522 7.61477 27.992 7.42048 28.0479L7.1949 28.149L7.85384 28.0122C7.90133 28.0122 8.1091 27.9468 8.13879 27.9527C8.16847 27.9587 8.13879 27.9825 8.02006 28.0003C8.02006 28.0003 8.1091 28.0479 8.02006 28.0657C7.82416 28.1014 7.7826 28.1074 7.80635 28.1431C7.83009 28.1787 8.02006 28.1431 7.80635 28.1847C7.9132 28.2382 7.80635 28.1847 8.13879 28.1847C8.03193 28.1847 8.07942 28.3334 7.5867 28.3334C7.40251 28.3709 7.21613 28.3968 7.02868 28.4107L6.74967 28.4523C6.74967 28.4523 6.76155 28.3988 6.63688 28.4167ZM7.27801 27.7327C7.36112 27.6851 7.08805 27.7327 6.9337 27.7327L6.71999 27.7862C6.90733 27.7873 7.09429 27.7694 7.27801 27.7327Z" fill="#2B82FB"/>
<path d="M6.83871 25.9721C6.96 25.9422 7.07608 25.8941 7.18302 25.8294C7.18302 25.8294 6.59532 26.0435 6.83871 25.9721Z" fill="#2B82FB"/>
<path d="M7.39079 25.9602C7.28394 25.9602 7.12959 26.0257 7.01087 26.0316C6.79122 26.0316 7.09991 25.9781 7.26019 25.9245C7.42048 25.871 7.77072 25.7045 7.50359 25.7758C7.23645 25.8472 7.0168 25.9364 6.81497 26.0019C6.40536 26.216 6.51815 26.0494 6.53002 26.0435L6.11447 26.1922L6.01356 26.2219C5.87105 26.2488 5.73177 26.2907 5.59801 26.3468C5.46741 26.4182 5.69893 26.3468 5.86515 26.2993C5.9067 26.2993 6.4291 26.1208 6.25101 26.2041C6.07292 26.2874 5.84734 26.3349 5.7108 26.4004C5.57426 26.4658 5.7108 26.4539 5.75829 26.4539C5.80578 26.4539 5.85327 26.5015 5.9067 26.5253C6.23592 26.48 6.55869 26.3962 6.86839 26.2755C7.20677 26.1625 7.7351 25.9305 7.39079 25.9602Z" fill="#2B82FB"/>
<path d="M6.01354 26.2219L6.11446 26.1922C6.23319 26.1565 5.7939 26.2695 6.01354 26.2219Z" fill="#2B82FB"/>
<path d="M5.91263 25.6272C5.76422 25.6688 5.25963 25.9008 5.43178 25.8472C5.60265 25.7997 5.76494 25.7255 5.91263 25.6272Z" fill="#2B82FB"/>
<path d="M6.06105 25.4249C5.85921 25.4606 5.33681 25.752 5.46741 25.7402C5.59801 25.7283 6.33412 25.3416 6.06105 25.4249Z" fill="#2B82FB"/>
<path d="M6.06104 25.4249C5.90076 25.4547 6.20352 25.3773 6.06104 25.4249V25.4249Z" fill="#2B82FB"/>
<path d="M4.61255 24.1759C4.38104 24.39 4.22075 24.6398 4.47008 24.3781C4.61849 24.2235 4.79065 24.0094 4.61255 24.1759Z" fill="#2B82FB"/>
<path d="M4.7966 22.2191C4.57696 22.6414 4.64226 22.3499 4.7966 22.2191V22.2191Z" fill="#2B82FB"/>
<path d="M7.49766 25.6747C7.42049 25.6747 7.07024 25.7104 7.43236 25.6034C7.68763 25.526 7.57483 25.4785 7.56296 25.4606C7.53855 25.4144 7.50169 25.3759 7.45657 25.3497C7.41145 25.3234 7.35987 25.3103 7.3077 25.3119C7.12961 25.3119 7.40268 25.1335 7.33738 25.08C7.27208 25.0264 6.63689 25.3238 7.0465 25.08C7.31363 24.9551 6.98713 24.961 7.0465 24.9313C7.28395 24.8301 7.0465 24.7409 7.0465 24.7112C7.0465 24.6815 7.09992 24.5684 7.0465 24.5209C6.9833 24.5839 6.90878 24.6343 6.82685 24.6696C6.72 24.7112 6.76749 24.6279 6.75561 24.616C6.74374 24.6041 6.62501 24.6815 6.60127 24.6577C6.57752 24.6339 6.68438 24.5566 6.80904 24.4852L6.84466 24.5209C7.06431 24.3484 7.0465 24.3246 6.9159 24.3246C6.7853 24.3246 7.02869 24.2056 6.98713 24.1759C6.94558 24.1462 6.66657 24.2711 6.51816 24.3067C6.36975 24.3424 6.70219 24.1224 6.77342 24.0391C6.96339 23.8309 6.54191 24.0034 6.57752 23.8845C6.61314 23.7655 6.61314 23.7952 6.39943 23.9618C6.18572 24.1283 6.39943 23.8488 6.39943 23.8369C6.39943 23.825 6.24509 23.8369 6.58346 23.5752C6.69625 23.48 6.3935 23.6227 6.34007 23.6584C6.10261 23.8131 6.02544 23.9082 5.96608 23.8726C6.03731 23.7536 5.85922 23.9142 5.72269 24.0391C5.48957 24.2404 5.24582 24.429 4.99251 24.6041C5.17785 24.4214 5.37625 24.2524 5.58615 24.0986C5.73083 23.9791 5.88356 23.8698 6.04325 23.7714C6.25696 23.6168 6.63689 23.3016 6.2154 23.5692C6.29258 23.4622 6.4113 23.3729 6.36381 23.3492C6.20947 23.4384 6.17385 23.3967 6.1501 23.3492C6.12636 23.3016 6.19166 23.1588 6.01357 23.2183C5.93038 23.2518 5.85395 23.3002 5.78799 23.361C5.9542 23.1886 6.11449 23.0042 6.10855 22.9328L5.84735 23.1886L5.53866 23.5038C5.76424 23.2778 6.00763 23.0161 5.96014 22.9506C5.91265 22.8852 5.8889 22.8079 5.69894 23.0042C5.80579 22.8674 5.82954 22.7782 5.81767 22.7365C5.80579 22.6949 5.74643 22.7365 5.61583 22.8971C5.66031 22.8171 5.69804 22.7336 5.72862 22.6473C5.72862 22.6473 5.4318 22.915 5.36057 22.9804C5.28933 23.0458 5.14686 23.2005 5.17654 23.2124C5.20622 23.2242 5.12905 23.3373 5.14686 23.3432C5.16467 23.3492 5.07562 23.3016 5.14686 23.1231C5.21809 22.9447 5.39618 22.8139 5.45555 22.7008C5.51491 22.5878 5.19435 22.9388 5.15279 22.9863C5.11124 23.0339 5.22997 22.7782 5.25371 22.7246C5.3665 22.4808 5.30714 22.3797 5.05187 22.7246C5.01032 22.7841 4.98064 22.5819 5.12311 22.4154C5.05781 22.4927 4.92721 22.6949 4.89753 22.6889C4.86785 22.683 4.93315 22.5224 4.95096 22.4391C4.96877 22.3559 4.73131 22.7901 4.67788 22.8793C4.74318 22.7663 4.67788 22.7663 4.79661 22.5759C4.83223 22.5224 5.02219 22.1834 4.98064 22.1953C4.94413 22.233 4.91225 22.2749 4.88566 22.3202H4.83223C4.83223 22.2845 4.83223 22.3202 4.79067 22.3202C4.64543 22.5096 4.51257 22.7083 4.39294 22.915C4.30983 23.0577 4.21485 23.2718 4.18516 23.2659L4.49979 22.6711C4.57696 22.5105 4.49979 22.5759 4.54135 22.4927C4.5829 22.4094 4.70163 22.2012 4.68382 22.1596C4.66601 22.118 4.6482 22.1061 4.60665 22.1596C4.56509 22.2131 4.47605 22.5284 4.40481 22.6295C4.33357 22.7306 4.40481 22.57 4.40481 22.4867C4.5176 22.1536 4.5829 22.118 4.48198 22.1061C4.38106 22.0942 4.19704 22.5759 4.03082 23.0101C3.94771 23.2421 3.82305 23.5216 3.70432 23.7833C3.46686 24.3067 3.84085 23.5871 3.85273 23.5871C3.8646 23.5871 3.66276 23.9915 3.64495 24.0331C3.62714 24.0748 3.77555 23.7774 3.83492 23.712C3.89428 23.6465 3.94177 23.6644 4.01895 23.593C4.09612 23.5216 4.1911 23.4086 4.0605 23.6465C3.99462 23.7756 3.92128 23.9007 3.84085 24.0213C3.88241 24.0213 3.90022 24.0807 4.00114 23.9856C4.1611 23.7625 4.30779 23.5301 4.44043 23.2897C4.31576 23.4919 4.44043 23.3789 4.44043 23.3729C4.3883 23.4712 4.33083 23.5665 4.26827 23.6584C4.18516 23.8012 3.84679 24.3781 4.07831 24.0748C4.20714 23.8839 4.32411 23.6853 4.42856 23.48C4.51166 23.3373 4.66007 23.2242 4.58884 23.3432C4.52801 23.4227 4.47248 23.5062 4.42262 23.593C4.42262 23.6227 4.54728 23.48 4.47011 23.6227C4.41528 23.722 4.35379 23.8174 4.28608 23.9082C4.41668 23.7298 5.08156 22.7187 4.98657 23.0161C4.98657 23.0934 4.16142 24.158 4.19704 24.1402C4.23265 24.1224 4.61852 23.6109 4.70756 23.5454C4.66601 23.593 4.41075 24.0034 4.39294 24.0391C4.29795 24.2354 4.67788 23.6406 4.62446 23.712C4.69569 23.6109 4.71944 23.6584 4.75506 23.6109C4.87378 23.4562 4.8441 23.5216 4.87378 23.5276C4.80255 23.6346 4.44636 24.1224 4.50573 23.9677C4.36326 24.1462 4.14361 24.4792 4.33357 24.277C4.52354 24.0748 4.81442 23.6822 4.92721 23.6168L4.72537 23.9261C4.64812 24.0109 4.57858 24.1025 4.5176 24.1997C4.5176 24.2532 4.91534 23.7952 5.05187 23.6049C5.08749 23.6049 4.89753 23.7952 4.91534 23.825C4.93315 23.8547 4.91534 23.8607 4.91534 23.938C4.86105 24.0472 4.79324 24.1491 4.7135 24.2413C4.63633 24.3424 4.52947 24.4435 4.57103 24.4376C4.61258 24.4316 4.68976 24.3603 4.63039 24.4376C4.57103 24.5149 4.55322 24.5209 4.57103 24.509C4.58884 24.4971 4.7135 24.4257 4.79661 24.3781C4.87972 24.3305 5.07562 24.1997 4.99845 24.2948C4.92127 24.39 4.74912 24.5149 4.74912 24.5149C4.74912 24.5149 5.18248 24.1818 5.20622 24.1521C5.1053 24.2651 5.37244 24.0807 5.32495 24.1521C5.27746 24.2235 4.95689 24.4792 4.80848 24.6041C4.88723 24.5351 4.97053 24.4716 5.05781 24.4138C4.9462 24.4872 4.86254 24.5962 4.82036 24.7231C4.82036 24.7707 4.68382 24.9313 4.9747 24.6755C5.26558 24.4198 5.12311 24.5922 5.47336 24.3543C5.52678 24.3186 5.74643 24.1818 5.66926 24.2651C5.59187 24.3259 5.51056 24.3816 5.42587 24.4316C5.27746 24.5506 5.6277 24.3603 5.42587 24.5149C5.31698 24.5835 5.21551 24.6632 5.12311 24.7528C5.12311 24.7826 4.90347 24.9194 4.93908 24.9372C4.9747 24.9551 5.09937 24.8658 4.99251 24.9372C5.26499 24.7623 5.5285 24.5737 5.78205 24.3722C5.85922 24.2651 6.37569 23.9261 6.1501 24.1283C5.72269 24.4792 6.39943 23.9915 6.39943 24.0629C6.32731 24.1493 6.23845 24.2201 6.13823 24.2711C5.94233 24.396 6.04325 24.2711 5.93639 24.3484L5.58021 24.616L5.24184 24.8599C5.24184 24.8599 5.74643 24.5506 5.59208 24.6755C5.43774 24.8004 5.42587 24.8004 5.3665 24.8599C5.52678 24.7528 5.60989 24.7885 5.50304 24.8599C5.36058 24.944 5.22375 25.0374 5.09343 25.1394C5.28933 25.0205 5.1706 25.1394 5.28339 25.0621C5.38166 25.0081 5.4768 24.9485 5.56834 24.8837C5.58214 24.8606 5.60029 24.8404 5.62177 24.8242C5.78799 24.7231 6.2154 24.5209 6.38756 24.4614C6.24509 24.5506 6.0195 24.6874 5.92452 24.7647C5.96014 24.7945 5.72269 24.9194 5.71675 24.9432C5.71081 24.9669 6.55378 24.509 6.55971 24.5982C6.2297 24.7289 5.91351 24.8923 5.61583 25.0859C5.33682 25.2524 5.55647 25.1632 5.74643 25.0859C5.5624 25.187 4.9094 25.5558 5.36057 25.3417C6.06699 24.9967 5.25371 25.419 5.45555 25.3417C5.65738 25.2643 5.93046 25.1097 5.8889 25.08C6.08479 24.963 6.29156 24.8654 6.50629 24.7885C6.36975 24.8837 6.22728 24.9907 6.067 25.0859C5.90671 25.1811 5.73456 25.2643 5.58021 25.3536C5.42587 25.4428 5.37244 25.4963 5.29527 25.5379L5.77018 25.2941L5.37244 25.5201C5.24184 25.6034 5.4318 25.5201 5.53866 25.5201C5.46146 25.5765 5.39166 25.6425 5.33088 25.7164C5.64551 25.5974 6.00763 25.3773 6.30445 25.2405C6.40537 25.1989 6.4113 25.2405 6.40537 25.2405C6.33813 25.28 6.26877 25.3158 6.1976 25.3476C6.00169 25.4785 6.49441 25.2703 6.55971 25.2524C6.62501 25.2346 6.68438 25.2524 6.63689 25.2941C6.47001 25.3368 6.30554 25.3884 6.14417 25.4487L5.52085 25.758L6.40537 25.413C6.55971 25.3654 6.44692 25.4606 6.28664 25.532C6.12636 25.6034 5.55053 25.8651 5.65738 25.8651C5.76424 25.8651 5.81767 25.8651 5.76424 25.8651C5.70403 25.8979 5.64031 25.9239 5.57428 25.9424C5.50304 26.0019 6.067 25.8234 6.16791 25.8056C6.26883 25.7877 5.96014 25.9483 5.91859 25.9781C5.87703 26.0078 5.63364 26.1327 5.97795 26.0138C6.22134 25.9364 6.48848 25.8175 6.5241 25.8591C6.23915 25.9662 5.48523 26.216 5.7583 26.1803C5.79392 26.216 6.67251 25.8591 6.86841 25.8234C6.9159 25.8234 6.04325 26.1506 6.01357 26.1506C6.07887 26.1506 6.86247 25.8829 7.0465 25.8413C7.23052 25.7996 7.79448 25.6569 7.49766 25.6747Z" fill="#2B82FB"/>
<path d="M2.94447 23.4859C2.90379 23.6213 2.87986 23.7611 2.87323 23.9023C2.91844 23.7681 2.94248 23.6276 2.94447 23.4859Z" fill="#2B82FB"/>
<path d="M2.81979 21.7908C2.75449 21.9455 2.85541 21.6421 2.81979 21.7908V21.7908Z" fill="#2B82FB"/>
<path d="M3.73399 23.6049C3.83893 23.415 3.92636 23.2159 3.99519 23.0101C3.99519 23.0101 3.85865 23.0993 3.99519 22.8376C4.04862 22.7484 3.99519 22.8733 4.08423 22.7425C4.19585 22.5261 4.27202 22.2931 4.30982 22.0525C4.30982 21.9038 4.22077 21.8919 4.11985 22.0109C4.01893 22.1299 3.85865 22.6473 3.90021 22.3737C3.90021 22.2786 4.00706 22.0704 4.03081 21.9514C4.05455 21.8325 3.98332 21.8682 3.95363 21.8741C3.92395 21.8801 3.85272 22.0585 3.79335 22.1299C3.73399 22.2012 3.74586 22.0942 3.73399 22.0228C3.72212 21.9514 3.60339 21.6362 3.51434 22.0228C3.51434 22.0823 3.37781 22.57 3.39561 22.3975C3.41342 22.225 3.46685 22.0525 3.4906 21.886C3.4906 21.9812 3.35406 22.2786 3.41342 21.886C3.41342 21.7016 3.35406 22.0168 3.33625 22.0228C3.31844 22.0287 3.33625 21.7551 3.28282 21.7076C3.2294 21.66 3.21159 21.9812 3.19971 21.8979C3.18784 21.8146 3.19971 21.6065 3.12254 21.6183C3.04537 21.6302 3.03943 21.8384 3.0335 21.8384C3.02756 21.8384 2.96226 21.7195 2.91477 21.7314C2.86728 21.7433 2.8554 21.5708 2.80791 21.7314C2.7827 21.7904 2.76476 21.8523 2.75449 21.9157C2.75449 21.9157 2.80198 21.8503 2.80791 21.9157C2.81385 21.9812 2.80791 22.1774 2.80791 22.3142C2.81212 22.5882 2.80221 22.8621 2.77823 23.135C2.77068 23.2816 2.77068 23.4286 2.77823 23.5752C2.81043 23.4561 2.83423 23.3348 2.84947 23.2124C2.9029 22.9566 2.84947 23.4027 2.88509 23.3432C2.9073 23.2946 2.92712 23.245 2.94445 23.1945C2.93665 23.3213 2.93665 23.4484 2.94445 23.5752C2.94445 23.5752 3.12848 22.7663 3.17003 22.683C3.30063 22.3678 3.12254 23.0042 3.17003 22.9982C3.19747 22.8971 3.23118 22.7978 3.27095 22.7008C3.27095 22.6652 3.27095 22.8139 3.27095 22.8912L3.18191 23.486C3.23485 23.3098 3.29829 23.137 3.37187 22.9685C3.37187 23.2124 3.1641 23.6109 3.15222 23.7358C3.14035 23.8607 3.36593 23.3016 3.24721 23.7774L3.40155 23.1826C3.44311 23.1826 3.27689 23.6644 3.40155 23.4978C3.4616 23.3941 3.50563 23.2818 3.53215 23.1648C3.53215 23.1053 3.59152 23.1648 3.60932 23.1648C3.53809 23.1648 3.37187 23.7595 3.51434 23.4741C3.5559 23.3967 3.51434 23.6584 3.51434 23.6763C3.51434 23.6941 3.59745 23.5871 3.63307 23.5811C3.66869 23.5752 3.53809 24.0331 3.67462 23.7001C3.71618 23.593 3.8171 23.2897 3.84084 23.2421C3.86459 23.1945 3.84084 23.3729 3.90021 23.2421C3.90021 23.2064 3.92989 23.1231 3.95957 23.0637C3.93135 23.2672 3.87955 23.4669 3.80522 23.6584C3.80522 23.6584 3.85272 23.3432 3.67462 23.8012C3.66709 23.8405 3.66709 23.8808 3.67462 23.9201C3.67462 23.9201 3.7518 23.8547 3.67462 24.045C3.67462 24.045 3.67462 24.045 3.73399 23.9796C3.76961 23.7417 3.76961 23.5811 3.73399 23.6049Z" fill="#2B82FB"/>
<path d="M2.67136 23.4859C2.67136 23.4859 2.60012 23.1053 2.67136 23.0815C2.67136 23.3254 2.78415 22.3618 2.77228 22.6533C2.77228 22.8198 2.77228 23.0458 2.77228 23.0339C2.77228 23.022 2.77228 23.0339 2.81383 22.9209C2.85539 22.4748 2.75447 22.4927 2.73666 22.2607C2.71885 22.0287 2.77228 21.6659 2.73666 21.6659C2.71585 21.6615 2.69423 21.6631 2.67427 21.6704C2.65431 21.6778 2.63684 21.6907 2.62387 21.7076C2.58825 21.7432 2.53482 21.9633 2.50514 21.8265C2.47546 21.6897 2.47546 21.6957 2.44578 21.8919C2.44578 21.8919 2.37454 21.9633 2.39235 21.8563V22.1536C2.3872 22.0023 2.37333 21.8514 2.3508 21.7016C2.3508 21.6719 2.29143 21.8503 2.2855 21.886C2.27956 21.9217 2.2855 22.3618 2.2855 22.2429C2.2855 22.5462 2.24988 22.2429 2.24394 22.3856C2.238 22.5284 2.2855 22.8912 2.2855 22.8912C2.2421 22.6514 2.21434 22.409 2.20239 22.1655C2.17867 22.044 2.14491 21.9246 2.10147 21.8087C2.10147 21.7551 1.88776 21.6124 1.88776 21.5946C1.88776 21.5767 1.96493 22.0168 1.9768 22.0942C1.98868 22.1715 1.89369 21.7492 1.8462 21.7135C1.79871 21.6778 1.78684 21.8622 1.78684 22.0228C1.78684 22.1834 1.78684 22.1299 1.73935 21.9157C1.69186 21.7016 1.6503 21.8087 1.63249 21.8206C1.61469 21.8325 1.53751 21.8206 1.55532 21.9633C1.57313 22.1061 1.63249 22.344 1.55532 22.1953C1.40098 21.8027 1.38317 21.8503 1.55532 22.3559C1.5197 22.3856 1.4544 22.0466 1.41878 21.9633C1.41878 21.9633 1.28225 21.7908 1.27038 21.8325C1.2585 21.8741 1.51377 22.5105 1.35348 22.2845C1.27038 22.1715 1.22288 21.9336 1.15758 21.9812C1.09228 22.0287 1.23476 22.2785 1.24663 22.4332C1.28427 22.5829 1.33187 22.73 1.3891 22.8733C1.50312 22.9616 1.58119 23.0885 1.60875 23.2302C1.67405 23.4324 1.53751 23.2659 1.60875 23.5157C1.65737 23.6789 1.71891 23.838 1.79278 23.9915C1.75122 23.8904 1.70967 23.7774 1.67999 23.6941C1.71353 23.8124 1.77226 23.922 1.85214 24.0153C1.83064 23.8612 1.80091 23.7083 1.76309 23.5573C1.72748 23.3908 1.60875 22.9625 1.7156 23.2123C1.82246 23.4622 1.80465 23.3491 1.7156 23.1053C1.74188 23.212 1.7839 23.3143 1.84027 23.4086C1.82785 23.5083 1.84434 23.6095 1.88776 23.7001C1.88776 23.7001 1.95306 23.8071 1.96493 23.7952C1.9768 23.7833 1.77497 22.8436 1.86995 23.0815C1.96493 23.3194 2.05398 24.0986 2.07179 23.825C2.05729 23.6487 2.02951 23.4737 1.98868 23.3016C1.95306 23.0993 1.98868 23.0755 1.93525 22.8555C1.98643 23.0345 2.02218 23.2176 2.0421 23.4027C2.0421 23.5633 2.0896 23.7536 2.11928 23.9142C2.14896 24.0748 2.11928 23.8785 2.11928 23.8012C2.0704 23.5601 2.04063 23.3154 2.03023 23.0696C2.03023 23.0101 2.07179 23.0696 2.09553 23.2064C2.0864 23.3721 2.10039 23.5382 2.13709 23.7001C2.13709 23.7001 2.13709 23.5395 2.13709 23.6644C2.13709 23.7893 2.13709 23.7595 2.1727 23.7417C2.20832 23.7239 2.1727 23.9201 2.21426 23.9142C2.29484 23.7819 2.35301 23.6372 2.38641 23.4859C2.38641 23.5395 2.38641 23.6644 2.38641 23.7239C2.38641 23.7833 2.38641 23.7655 2.42797 23.7595C2.46952 23.7536 2.46952 23.8904 2.49327 23.8428C2.51701 23.7952 2.52889 23.3729 2.54076 23.5276C2.55263 23.6822 2.54076 23.9023 2.57638 23.6644C2.57638 23.9201 2.65355 23.712 2.66542 23.8131C2.6773 23.9142 2.76634 23.2897 2.76041 23.1231C2.7634 23.2498 2.73267 23.3751 2.67136 23.4859Z" fill="#2B82FB"/>
<path d="M1.30008 23.593C1.35944 23.6703 1.39506 23.7179 1.38913 23.6822C1.38319 23.6465 1.31195 23.5811 1.30008 23.593Z" fill="#2B82FB"/>
<path d="M1.31787 23.8547C1.32974 23.8131 1.67405 24.3543 1.31787 23.8547V23.8547Z" fill="#2B82FB"/>
<path d="M0.961701 21.9931C0.902337 21.9931 0.860782 21.9931 0.842973 22.0585C0.825164 22.1239 0.884528 22.3321 0.78361 22.1358C0.831101 22.2607 0.78361 22.3737 0.78361 22.3023C0.78361 22.231 0.742055 22.1536 0.78361 22.1655C0.676755 22.0823 0.617391 22.1655 0.563964 22.225C0.510536 22.2845 0.362127 22.225 0.563964 22.57C0.599582 22.6295 0.457109 22.4689 0.415554 22.4035C0.575836 22.7425 0.213717 22.4035 0.189972 22.4867C0.407205 22.8224 0.645122 23.1442 0.902337 23.4503L0.961701 23.5335C1.05075 23.6584 1.20509 23.8369 1.32382 23.9737C1.32382 23.9737 1.16354 23.7536 1.12792 23.6882C1.0923 23.6227 1.27039 23.8309 1.34163 23.9082C1.41287 23.9856 1.17541 23.6227 1.1576 23.5871C1.13979 23.5514 1.1576 23.5573 1.1576 23.5097C1.1576 23.4622 0.753928 22.915 0.920146 23.1053C1.06059 23.2931 1.18566 23.492 1.29414 23.7001C1.56721 24.1283 1.69187 24.2948 1.64438 24.158C1.64399 24.0739 1.62578 23.9908 1.59096 23.9142C1.47223 23.7001 1.50191 23.8428 1.47223 23.825C1.35457 23.7379 1.26233 23.6208 1.20509 23.4859C1.15166 23.361 0.985446 23.248 0.91421 23.1112C0.842973 22.9744 1.04481 23.2124 1.05075 23.2242C1.05668 23.2361 1.05075 23.1529 1.08043 23.1648C1.11011 23.1767 1.23477 23.4265 1.26446 23.4265C1.29414 23.4265 1.22884 23.3254 1.26446 23.3789C1.30007 23.4324 1.60877 23.9142 1.59689 23.8844L1.44848 23.5811C1.38318 23.4324 1.40099 23.4324 1.33569 23.2718C1.27039 23.1112 1.16354 22.7841 1.16354 22.7187C1.16354 22.6533 1.29414 22.915 1.29414 22.8971C1.29414 22.8793 1.11011 22.5105 1.07449 22.4391C1.03887 22.3678 0.997319 22.225 0.949828 22.118C1.0448 22.3417 1.15182 22.5601 1.27039 22.7722C1.34297 22.8686 1.39729 22.9774 1.43067 23.0934C1.43067 23.135 1.35944 23.0042 1.38318 23.0934C1.41128 23.2067 1.44698 23.318 1.49004 23.4265C1.49004 23.4859 1.75718 24.0807 1.75718 24.0807L1.63845 23.8071L1.51378 23.4859L1.67407 23.7952L1.79873 24.0272C1.79873 24.0272 1.59096 23.5038 1.56127 23.4324C1.50328 23.3029 1.4537 23.1698 1.41287 23.0339C1.30403 22.6703 1.15259 22.3209 0.961701 21.9931Z" fill="#2B82FB"/>
<path d="M0.914192 23.5335C0.914192 23.5335 0.878573 23.4859 0.854828 23.4503L0.914192 23.5335Z" fill="#2B82FB"/>
<path d="M0.569892 23.0934C0.457101 23.0518 0.433355 22.9923 0.189964 22.7187C0.0296819 22.5403 0.0356183 22.6473 0.0296819 22.6889C0.0237455 22.7306 -0.124664 22.909 0.326501 23.2837C0.326501 23.3373 0.106855 23.0815 0 23.028C0 23.0874 0.391801 23.4384 0.534274 23.5573C0.676747 23.6763 0.902329 23.819 0.593638 23.5573C0.706429 23.6465 1.49003 24.3424 1.36537 24.2116C1.06855 23.9082 0.445228 23.3135 0.492719 23.2124L0.736111 23.48C0.908266 23.6703 1.07448 23.8607 1.26445 24.0748C1.54346 24.3722 0.943884 23.6882 0.777665 23.5216C0.88452 23.6049 1.12791 23.8369 0.979502 23.6644C0.862883 23.5434 0.757567 23.412 0.664874 23.2718C0.664874 23.2718 0.569892 23.0993 0.569892 23.0934Z" fill="#2B82FB"/>
<path d="M1.23475 24.277C1.43659 24.4257 1.28818 24.277 1.1279 24.1581L1.23475 24.277Z" fill="#2B82FB"/>
</svg>
